<svg width="780" height="570" viewBox="0 0 780 570" fill="none" xmlns="http://www.w3.org/2000/svg">
<g clip-path="url(#clip0_844_4966)">
<path d="M296.045 108.196L289.931 110.069L285.827 100.581L276.552 102.218L272.317 95.6216L268.973 97.7595L274.637 106.585L283.425 105.035L287.698 114.906L296.895 112.085L296.045 108.196Z" fill="#E4C4FF"/>
<path d="M688.045 449.438L681.935 451.31L677.827 441.822L668.552 443.459L664.317 436.863L660.973 439.001L666.637 447.827L675.425 446.276L679.698 456.147L688.895 453.326L688.045 449.438Z" fill="#F36B80"/>
<path d="M258.38 561.762C258.38 561.762 225.761 451.375 223.145 427.022C220.528 402.673 238.765 410.219 238.765 410.219C238.765 410.219 223.419 363.821 234.518 352.81C245.612 341.798 255.62 362.323 255.62 362.323C255.62 362.323 258.978 305.998 270.809 305.976C292.844 305.937 292.408 367.405 292.408 367.405C292.408 367.405 298.033 343.339 309.829 349.936C327.622 359.885 302.106 408.112 302.106 408.112C302.106 408.112 324.778 408.129 332.741 419.542C347.032 440.019 258.376 561.762 258.376 561.762H258.38Z" fill="#F36B80"/>
<path d="M269.047 547.154C269.047 547.154 175.014 531.452 154.561 514.815C134.109 498.178 154.352 490.676 154.352 490.676C154.352 490.676 107.115 466.497 107.66 450.056C108.206 433.614 131.676 441.974 131.676 441.974C131.676 441.974 91.8742 396.656 101.298 388.052C118.85 372.02 164.862 419.128 164.862 419.128C164.862 419.128 151.199 396.726 165.59 393.181C187.29 387.834 203.307 443.076 203.307 443.076C203.307 443.076 199.238 421.261 214.2 424.166C241.046 429.378 269.051 547.149 269.051 547.149L269.047 547.154Z" fill="#5C407B"/>
<path d="M214.196 424.166C199.195 421.457 203.303 443.076 203.303 443.076C203.303 443.076 187.285 387.834 165.586 393.181C151.195 396.726 164.858 419.128 164.858 419.128C164.858 419.128 118.842 372.02 101.294 388.052L268.729 547.18C265.75 531.979 239.345 428.707 214.196 424.17V424.166Z" fill="#E4C4FF"/>
<path d="M295.797 560.103C295.797 560.103 246.275 509.821 221.339 504.583C196.4 499.345 200.887 517.062 200.887 517.062C200.887 517.062 151.409 473.86 139.944 484.327C128.48 494.795 140.882 504.901 140.882 504.901C140.882 504.901 99.6675 497.608 93.7673 511.114C84.7011 531.866 152.482 543.157 152.482 543.157C152.482 543.157 124.08 545.12 130.664 558.131C140.598 577.75 295.797 560.099 295.797 560.099V560.103Z" fill="#5C407B"/>
<path d="M93.7676 511.114C99.6678 497.612 140.882 504.901 140.882 504.901C140.882 504.901 128.48 494.795 139.945 484.327C151.409 473.86 199.352 511.188 199.352 511.188C199.352 511.188 188.049 489.617 212.989 494.851C237.928 500.089 295.806 560.103 295.806 560.103L93.7719 511.114H93.7676Z" fill="#8B5DD0"/>
<path d="M374.637 41.5041C357.969 44.2429 353.016 66.0878 366.874 75.8585C369.364 77.6133 371.087 80.2519 371.819 83.204L374.344 93.3666C375.038 96.1664 377.772 97.9646 380.624 97.4944L386.939 96.4581C389.791 95.9879 391.801 93.4145 391.561 90.5364C390.685 80.0472 389.603 76.2417 393.018 71.561C403.008 57.8758 391.312 38.761 374.641 41.5041H374.637Z" fill="#F2F2F2"/>
<path d="M376.337 85.9166C375.251 76.9296 373.729 67.4419 373.21 64.751C363.655 65.2779 367.288 55.2197 371.697 59.3083C372.953 60.4752 373.546 62.0558 373.938 63.7844C377.113 63.497 380.213 62.5957 383.044 61.137C382.891 58.9208 382.673 57.2401 383.292 55.8206C384.23 53.6784 386.947 53.0949 388.054 55.1805C388.468 55.9643 388.543 56.9658 388.242 57.7974C387.601 59.5695 385.673 60.7408 383.99 61.6595C384.491 68.8047 385.189 76.0065 386.066 83.0951L385.163 83.2083C384.3 76.233 383.611 69.1487 383.109 62.1167C380.301 63.5101 377.248 64.3809 374.121 64.677C374.775 68.1168 376.219 77.365 377.239 85.8034L376.337 85.9123V85.9166ZM368.67 62.6305C369.521 63.5449 370.942 63.9455 373.018 63.8497C372.66 62.3214 372.128 60.9498 371.077 59.9745C368.705 57.7713 367.249 61.0979 368.675 62.6305H368.67ZM384.121 56.1864C383.597 57.3794 383.798 58.9077 383.916 60.6624C385.281 59.8874 386.868 58.9164 387.378 57.497C387.74 56.4999 387.335 55.0935 386.319 54.8322C386.21 54.8061 384.483 55.3547 384.121 56.1907V56.1864Z" fill="#31DAE7"/>
<path d="M371.745 82.956C371.767 83.0388 371.797 83.1215 371.819 83.2086L374.344 93.3712C375.038 96.1709 377.772 97.9692 380.624 97.499L386.938 96.4627C389.79 95.9924 391.801 93.4191 391.561 90.541C391.173 85.8733 390.741 82.5337 390.684 79.8472L371.749 82.956H371.745Z" fill="#31DAE7"/>
<path d="M362.282 33.9194L357.297 24.8366C356.813 23.9571 357.136 22.8555 358.017 22.3722C358.898 21.8889 360.001 22.2111 360.485 23.0906L365.47 32.1734C365.954 33.0529 365.631 34.1545 364.75 34.6379C363.865 35.1212 362.761 34.7946 362.282 33.9194Z" fill="#F2F2F2"/>
<path d="M351.384 55.8943L340.521 54.9451C339.522 54.858 338.781 53.9785 338.868 52.977C338.956 51.9799 339.836 51.2397 340.839 51.3268L351.702 52.276C352.701 52.3631 353.442 53.2426 353.355 54.2441C353.268 55.2412 352.387 55.9814 351.384 55.8943Z" fill="#F2F2F2"/>
<path d="M340.612 89.1516C339.906 88.4375 339.915 87.288 340.63 86.5827C343.299 83.9484 346.238 81.5536 349.36 79.4723C350.193 78.915 351.323 79.1414 351.881 79.973C352.439 80.8047 352.212 81.9324 351.379 82.4897C348.449 84.4448 345.693 86.6915 343.185 89.1647C342.474 89.8657 341.323 89.8657 340.612 89.1473V89.1516Z" fill="#F2F2F2"/>
<path d="M389.127 33.4271C388.154 33.1702 387.579 32.1731 387.84 31.2065C389.07 26.6085 389.825 21.8668 390.082 17.112C390.134 16.1106 390.993 15.3399 391.996 15.3965C392.999 15.4487 393.767 16.3065 393.715 17.308C393.444 22.3109 392.65 27.3051 391.355 32.147C391.094 33.1223 390.091 33.6883 389.131 33.4315L389.127 33.4271Z" fill="#F2F2F2"/>
<path d="M400.317 47.3733C400.03 46.411 400.57 45.4008 401.534 45.1091L412.829 41.7085C413.793 41.4211 414.804 41.961 415.096 42.9233C415.384 43.8812 414.843 44.8957 413.88 45.1831L402.585 48.5837C401.626 48.8711 400.61 48.3312 400.322 47.3689L400.317 47.3733Z" fill="#F2F2F2"/>
<path d="M418.868 77.3826C418.706 77.3826 418.541 77.3608 418.375 77.3129C414.463 76.2157 410.656 74.6917 407.063 72.7846C406.178 72.3143 405.842 71.2171 406.313 70.3288C406.784 69.4449 407.887 69.1053 408.772 69.5756C412.134 71.3608 415.697 72.7846 419.36 73.8122C420.328 74.0821 420.891 75.0836 420.616 76.0502C420.39 76.8514 419.661 77.3739 418.868 77.3739V77.3826Z" fill="#F2F2F2"/>
<path d="M584.314 157.626L578.614 144.171L564.28 141.232C562.649 140.897 562.108 138.837 563.368 137.749L574.423 128.178L572.797 113.661C572.609 112.007 574.406 110.862 575.832 111.72L588.36 119.261L601.687 113.23C603.205 112.542 604.853 113.892 604.478 115.512L601.168 129.741L611.032 140.531C612.158 141.759 611.381 143.74 609.72 143.884L595.142 145.138L587.911 157.839C587.087 159.284 584.959 159.163 584.309 157.63L584.314 157.626Z" fill="#E4C4FF"/>
<path d="M675.032 111.458L672.691 120.88L657.096 118.79L651.968 132.14L640.041 132.484L640.215 138.51L656.167 138.053L661.025 125.4L677.248 127.577L680.776 113.4L675.032 111.458Z" fill="#F36B80"/>
<path d="M536.088 562.999H261.943C251.473 562.999 242.982 554.207 242.982 543.366V531.692C242.982 520.846 251.473 512.059 261.943 512.059H536.088C523.546 526.254 523.332 547.951 535.582 562.411L536.088 563.003V562.999Z" fill="#E25A74"/>
<path d="M531.853 517.889H379.799C369.328 517.889 360.838 526.68 360.838 537.526C360.838 548.368 369.324 557.159 379.799 557.159H531.866C524.762 545.116 524.775 529.902 531.853 517.889Z" fill="#F2F2F2"/>
<path d="M439.773 476.673C440.17 475.928 439.564 475.062 438.644 475.062H293.585C282.216 475.062 272.997 483.344 272.997 493.563C272.997 503.778 282.216 512.064 293.585 512.064H438.683C439.608 512.064 440.218 511.193 439.812 510.444C434.069 499.75 434.082 487.319 439.769 476.673H439.773Z" fill="#8B5DD0"/>
<path d="M438.858 478.506H366.965C353.621 478.506 342.802 485.446 342.802 494.007C342.802 502.567 353.621 509.508 366.965 509.508H439.329C434.384 499.641 434.244 488.412 438.858 478.501V478.506Z" fill="#F2F2F2"/>
<path d="M420.294 485.856H410.931C408.916 485.856 407.285 486.531 407.285 487.363V487.497H420.294V485.856Z" fill="#34BED1"/>
<path d="M428.279 489.635C428.279 487.545 425.832 485.856 422.819 485.856H410.805C413.094 485.856 414.947 487.14 414.947 488.725L414.891 529.258L421.528 524.046L428.296 529.258L428.283 489.64L428.279 489.635Z" fill="#31DAE7"/>
<path d="M413.103 473.729H328.699C321.216 473.729 315.146 466.54 315.146 457.671C315.146 448.802 321.211 441.613 328.699 441.613H413.103C406.653 450.517 406.401 463.575 412.501 472.819L413.103 473.734V473.729Z" fill="#F2F2F2"/>
<path d="M315.158 457.667C315.158 448.797 321.368 441.609 329.03 441.609H414.712C415.113 441.609 415.436 441.23 415.432 440.768C415.432 440.311 415.109 439.945 414.712 439.945H278.785C270.329 439.945 263.474 447.879 263.474 457.671C263.474 467.459 270.329 475.397 278.785 475.397H414.708C415.1 475.397 415.423 475.027 415.427 474.574C415.427 474.112 415.109 473.734 414.708 473.734H329.026C321.364 473.734 315.154 466.545 315.154 457.675L315.158 457.667Z" fill="#5C407B"/>
<path d="M398.368 449.499H389.005C386.99 449.499 385.359 450.16 385.359 450.979V451.11H398.368V449.499Z" fill="#34BED1"/>
<path d="M406.353 453.208C406.353 451.162 403.906 449.499 400.893 449.499H388.879C391.168 449.499 393.022 450.757 393.022 452.311L392.965 492.061L399.602 486.949L406.37 492.061L406.357 453.208H406.353Z" fill="#31DAE7"/>
<path d="M547.583 203.98L560.041 200.706L551.594 313.174L536.646 313.67L544.185 208.064C544.325 206.118 545.69 204.476 547.578 203.98H547.583Z" fill="#E4C4FF"/>
<path d="M552.715 316.378C552.436 316.405 552.152 316.4 551.86 316.365C549.387 316.074 547.551 313.618 547.77 310.875L556.064 205.121C556.278 202.382 558.458 200.396 560.935 200.688C563.412 200.98 565.243 203.436 565.025 206.179L556.731 311.933C556.539 314.354 554.817 316.182 552.715 316.378Z" fill="#F36B80"/>
<path d="M438.038 322.013C438.042 322.091 438.047 322.169 438.056 322.248C438.448 326.55 441.784 329.767 445.513 329.436L550.74 320.031C554.468 319.701 557.172 315.939 556.784 311.637C556.766 311.454 556.745 311.275 556.719 311.097L438.042 322.013H438.038Z" fill="#F36B80"/>
<path d="M511.314 435.604C504.424 439.419 483.361 432.731 483.361 432.125C483.06 437.873 459.777 494.129 459.777 494.129L459.795 511.437C459.795 511.437 507.768 513.718 507.079 509.486C506.39 505.254 503.809 508.006 494.241 500.011C493.391 499.302 479.955 496.188 483.592 488.246C490.914 472.253 506.469 445.589 511.318 435.604H511.314Z" fill="#FFB3C5"/>
<path d="M458.22 512.055L510.733 512.068C512.63 511.876 513.071 510.335 512.403 509.399C511.025 507.47 500.96 502.928 494.197 499.911C482.414 501.287 461.7 496.763 459.803 494.076C454.814 500.747 457.164 511.832 458.224 512.05L458.22 512.055Z" fill="#5C407B"/>
<path d="M446.699 395.215C445.988 393.086 491.912 373.627 493.966 375.852C497.603 379.784 469.118 453.605 469.118 453.605L501.842 463.589C501.842 463.589 535.861 378.304 534.444 362.703C533.022 347.102 515.98 329.376 479.052 340.723C442.124 352.066 446.695 395.215 446.695 395.215H446.699Z" fill="#472A6A"/>
<path d="M541.782 445.306C534.029 443.895 523.981 443.494 515.94 443.355C516.886 450.505 521.491 487.175 520.65 489.426C517.239 498.553 509.678 502.824 509.678 502.824C509.678 502.824 545.336 534.949 547.491 531.24C549.645 527.53 545.899 528.026 543.57 515.787C543.365 514.698 538.206 497.617 537.888 488.399C537.278 470.825 541.516 455.063 541.782 445.306Z" fill="#FFB3C5"/>
<path d="M530.345 325.348C525.369 322.696 512.456 322.605 498.253 323.524C470.566 325.313 443.241 330.756 416.902 339.464L399.279 345.295L399.336 327.255C399.336 327.255 343.273 317.889 341.324 331.762C338.385 352.653 342.03 395.071 360.712 404.537C418.733 433.946 500.041 357.691 500.333 367.666C500.73 381.064 512.042 430.924 514.933 452.751C522.979 452.891 536.799 452.886 542.79 451.51C543.955 408.748 544.504 332.89 530.345 325.348Z" fill="#5C407B"/>
<path d="M508.593 503.582L548.677 535.555C550.265 536.604 551.586 535.694 551.66 534.549C551.817 532.184 546.916 522.301 543.597 515.691C533.611 509.299 520.437 492.622 520.672 489.348C516.446 492.91 507.908 502.75 508.588 503.586L508.593 503.582Z" fill="#5C407B"/>
<path d="M417.861 150.968C416.513 138.676 415.096 126.341 404.892 117.332C396.632 110.043 386.136 108.806 375.752 112.708C346.338 123.759 361.492 149.84 323.989 176.139C312.333 184.312 299.49 189.903 290.716 200.906C278.436 216.307 283.071 234.834 294.266 247.204C347.821 306.386 407.617 226.46 411.908 207.272C415.1 192.999 418.724 158.875 417.861 150.964V150.968Z" fill="#472A6A"/>
<path d="M406.984 220.077C402.611 212.027 398.101 205.635 398.101 205.635C393.562 197.579 381.84 193.508 381.84 193.508C381.84 193.508 377.919 193.587 373.415 193.809C373.136 194.553 372.852 195.089 372.564 195.302C370.872 196.569 361.174 194.932 354.912 199.182C333.914 217.151 339.723 304.257 341.376 331.766L405.319 332.371C405.319 332.371 397.255 273.177 410.251 257.967C419.299 247.378 413.478 232.03 406.984 220.082V220.077Z" fill="#F2F2F2"/>
<path d="M378.16 164.039C378.16 164.039 374.645 189.102 372.19 195.193C369.735 201.285 385.687 214.308 398.961 218.262C412.235 222.215 394.905 204.807 395.455 198.298C396.004 191.788 398.416 160.961 398.416 160.961L378.155 164.039H378.16Z" fill="#FFB3C5"/>
<path d="M397.748 169.8C398.136 164.701 398.42 160.961 398.42 160.961L378.159 164.039C378.159 164.039 377.649 166.983 377.082 171.15C385.294 175.909 392.681 174.407 397.744 169.804L397.748 169.8Z" fill="#EA94AD"/>
<path d="M384.514 118.26C384.514 118.26 376.529 120.058 371.597 127.569C366.665 135.08 363.285 157.199 379.52 167.523C395.76 177.846 408.389 163.243 408.599 149C408.808 134.758 405.751 115.747 384.509 118.26H384.514Z" fill="#FFB3C5"/>
<path d="M412.318 144.541C410.931 147.977 408.184 150.11 406.178 149.305C404.172 148.499 403.671 145.059 405.057 141.624C406.444 138.189 409.192 136.055 411.197 136.86C413.203 137.666 413.705 141.106 412.318 144.541Z" fill="#FFB3C5"/>
<path d="M386.911 117.789C386.911 117.789 376.733 140.588 367.789 142.625C358.845 144.663 358.976 156.132 358.976 156.132C358.976 156.132 359.176 129.641 367.558 123.563C375.939 117.484 386.916 117.789 386.916 117.789H386.911Z" fill="#472A6A"/>
<path d="M371.34 147.367C372.517 151.068 371.44 154.717 368.932 155.51C366.425 156.302 363.438 153.946 362.26 150.245C361.083 146.544 362.16 142.896 364.667 142.103C367.175 141.311 370.162 143.666 371.34 147.367Z" fill="#FFB3C5"/>
<path d="M485.715 311.964C481.877 310.579 476.169 310.405 476.265 309.9C476.649 307.853 493.599 314.42 491.31 311.433C490.037 309.769 477.351 303.878 474.268 304.853C471.276 305.798 451.631 311.302 451.631 311.302L397.944 298.74C397.944 298.74 384.395 267.995 383.069 241.579C371.866 243.09 364.244 245.854 354.506 251.249C359.202 276.512 370.61 317.459 383.226 325.139C388.534 328.37 451.892 321.273 451.892 321.273C451.892 321.273 465.856 320.289 468.136 319.414C469.868 318.748 474.32 316.244 476.745 315.56C482.252 314.002 492.069 317.912 492.099 316.836C492.121 316.052 489.631 313.388 485.711 311.972L485.715 311.964Z" fill="#FFB3C5"/>
<path d="M383.397 213.351C382.883 205.221 379.8 197.375 371.135 194.845C365.766 193.278 359.744 194.776 355.453 198.276C350.351 202.439 348.925 209.114 348.947 215.432C348.999 229.779 349.98 244.657 352.605 258.782C362.339 253.387 373.703 250.143 384.906 248.632C384.902 248.55 384.077 224.088 383.393 213.346L383.397 213.351Z" fill="#E1DDE7"/>
<path d="M217.061 228.69L133.829 213.215C132.159 212.906 131.056 211.299 131.366 209.632L141.792 153.728C142.102 152.061 143.711 150.959 145.381 151.268L228.612 166.743C230.283 167.052 231.386 168.659 231.076 170.326L220.649 226.23C220.34 227.897 218.731 228.999 217.061 228.69Z" fill="#E1DDE7"/>
<path d="M177.442 164.775L152.106 160.064C150.436 159.754 149.332 158.148 149.642 156.48L151.229 147.972C151.539 146.304 153.148 145.203 154.818 145.512L180.155 150.223C181.825 150.532 182.928 152.139 182.619 153.807L181.031 162.315C180.722 163.982 179.112 165.084 177.442 164.775Z" fill="#E1DDE7"/>
<path d="M220.851 226.552C220.419 228.08 218.888 229.029 217.323 228.738L133.546 213.163C131.99 212.871 130.904 211.451 131.043 209.871L135.426 159.759C135.5 158.897 135.941 158.104 136.63 157.577C137.323 157.055 138.204 156.846 139.054 157.003L232.119 174.306C232.969 174.463 233.715 174.972 234.173 175.708C234.631 176.444 234.757 177.332 234.522 178.164L220.846 226.547L220.851 226.552Z" fill="#F2F2F2"/>
<path d="M602.599 43.4417L588.347 47.3257L585.277 30.0831L589.943 29.2559L592.102 41.3996L601.351 38.8786L602.599 43.4417Z" fill="#F36B80"/>
<path d="M148.539 280.274C152.106 279.982 157.587 281.554 160.042 283.217C160.413 283.561 163.239 284.685 166.174 289.544L165.511 290.001C162.41 286.762 160.326 286.034 157.845 285.294C153.754 284.245 149.629 285.029 149.289 285.212L148.534 280.278L148.539 280.274Z" fill="#8B5DD0"/>
<path d="M165.842 289.775C165.842 289.775 144.095 293.397 146.123 310.361C148.151 327.325 171.093 340.518 191.567 330.029C219.11 315.917 208.234 280.034 188.628 277.261C169.022 274.487 165.842 289.775 165.842 289.775Z" fill="#F36B80"/>
<path d="M175.07 282.303C175.07 282.303 180.743 276.486 193.176 281.781C205.609 287.071 206.507 311.746 195.422 310.313C184.337 308.881 166.209 285.869 175.074 282.307L175.07 282.303Z" fill="#FF8DA3"/>
<path d="M324.673 56.9567L235.233 88.8118C232.35 89.8394 229.18 88.3372 228.151 85.4591L211.64 39.2483C210.611 36.3702 212.116 33.2047 214.998 32.1771L304.439 0.321994C307.322 -0.70559 310.492 0.796598 311.521 3.6747L328.031 49.8811C329.06 52.7593 327.556 55.9247 324.673 56.9523V56.9567Z" fill="#31DAE7"/>
<path d="M265.388 45.079C268.676 54.2837 263.87 64.4115 254.647 67.6946C245.428 70.9776 235.285 66.1793 231.997 56.9703C228.709 47.7655 233.514 37.6377 242.738 34.3547C251.956 31.0717 262.1 35.87 265.388 45.079Z" fill="white"/>
<path d="M251.232 42.6013C252.2 45.314 250.783 48.3009 248.066 49.2719C245.349 50.2386 242.358 48.8234 241.385 46.1108C240.413 43.3982 241.834 40.4112 244.551 39.4402C247.268 38.4736 250.26 39.8887 251.232 42.6013Z" fill="#86B1F2"/>
<path d="M247.144 53.1006L251.21 51.6525C254.431 50.5057 257.975 52.1837 259.123 55.3989L259.753 57.1624L244.022 62.7648L243.392 61.0013C242.243 57.786 243.924 54.2474 247.144 53.1006Z" fill="#86B1F2"/>
<path d="M267.594 35.417C266.639 35.417 265.785 34.8161 265.466 33.9192C265.048 32.7479 265.663 31.4547 266.836 31.0367L305.935 17.1121C306.179 17.025 306.437 16.9814 306.694 16.9814C307.649 16.9814 308.504 17.5823 308.822 18.4793C309.241 19.6506 308.626 20.9437 307.453 21.3617L268.353 35.2864C268.109 35.3735 267.852 35.417 267.594 35.417Z" fill="white"/>
<path d="M278.147 45.1484C277.192 45.1484 276.337 44.5475 276.019 43.6505C275.6 42.4793 276.215 41.1861 277.388 40.7681L307.927 29.8914C308.172 29.8043 308.429 29.7607 308.686 29.7607C309.641 29.7607 310.496 30.3616 310.814 31.2586C311.015 31.8246 310.984 32.4386 310.727 32.9828C310.47 33.5271 310.012 33.9407 309.445 34.141L278.906 45.0178C278.662 45.1048 278.405 45.1484 278.147 45.1484Z" fill="white"/>
<path d="M463.645 405.5H247.678C240.971 405.5 235.533 410.929 235.533 417.626V427.823C235.533 434.52 240.971 439.95 247.678 439.95H463.645L463.531 439.832C454.291 430.231 454.343 415.044 463.645 405.504V405.5Z" fill="#31DAE7"/>
<path d="M459.821 410.599H344.368C337.661 410.599 332.223 416.028 332.223 422.725C332.223 429.422 337.661 434.851 344.368 434.851H459.817C455.574 427.345 455.578 418.105 459.817 410.603L459.821 410.599Z" fill="#F2F2F2"/>
<path d="M640.399 406.492L624.028 365.484C623.204 363.42 624.211 361.082 626.278 360.259L685.189 336.817C687.256 335.994 689.598 336.999 690.422 339.063L706.792 380.071C707.617 382.135 706.609 384.473 704.542 385.296L645.636 408.739C643.569 409.562 641.227 408.556 640.403 406.492H640.399Z" fill="#F2F2F2"/>
<path d="M695.969 382.779L681.26 345.93C681.024 345.338 681.312 344.667 681.905 344.432C682.498 344.197 683.17 344.484 683.405 345.077L698.115 381.926C698.35 382.518 698.062 383.189 697.469 383.424C696.876 383.659 696.204 383.371 695.969 382.779Z" fill="#31DAE7"/>
<path d="M688.961 377.925L676.881 347.668C676.645 347.076 676.933 346.405 677.526 346.17C678.119 345.935 678.791 346.222 679.026 346.814L691.106 377.071C691.342 377.664 691.054 378.334 690.461 378.569C689.868 378.804 689.196 378.517 688.961 377.925Z" fill="#31DAE7"/>
<path d="M687.216 386.263L672.507 349.413C672.271 348.821 672.559 348.151 673.152 347.916C673.745 347.68 674.417 347.968 674.652 348.56L689.362 385.409C689.597 386.001 689.309 386.672 688.716 386.907C688.123 387.142 687.452 386.855 687.216 386.263Z" fill="#31DAE7"/>
<path d="M679.485 379.596L668.129 351.155C667.894 350.563 668.181 349.892 668.774 349.657C669.368 349.422 670.039 349.709 670.275 350.302L681.63 378.743C681.866 379.335 681.578 380.006 680.985 380.241C680.392 380.476 679.72 380.189 679.485 379.596Z" fill="#31DAE7"/>
<path d="M695.572 341.999L695.276 341.258C695.167 340.984 694.87 340.845 694.613 340.949L689.022 343.174C688.765 343.274 688.643 343.579 688.752 343.854L689.048 344.594C689.157 344.868 689.454 345.007 689.711 344.903L695.302 342.678C695.559 342.578 695.681 342.273 695.572 341.999Z" fill="#31DAE7"/>
<path d="M696.841 345.173L696.544 344.433C696.435 344.158 696.139 344.019 695.881 344.124L690.291 346.349C690.033 346.449 689.911 346.754 690.02 347.028L690.317 347.768C690.426 348.042 690.722 348.182 690.98 348.077L696.57 345.852C696.828 345.748 696.945 345.447 696.841 345.173Z" fill="#31DAE7"/>
<path d="M698.105 348.347L697.809 347.607C697.7 347.332 697.403 347.193 697.146 347.297L691.555 349.522C691.298 349.623 691.176 349.927 691.285 350.202L691.582 350.942C691.691 351.216 691.987 351.356 692.244 351.251L697.835 349.026C698.092 348.926 698.214 348.621 698.105 348.347Z" fill="#31DAE7"/>
<path d="M699.375 351.521L699.078 350.781C698.969 350.507 698.673 350.367 698.416 350.472L692.825 352.697C692.568 352.801 692.446 353.102 692.555 353.376L692.851 354.116C692.96 354.391 693.257 354.53 693.514 354.425L699.105 352.2C699.362 352.096 699.484 351.795 699.375 351.521Z" fill="#31DAE7"/>
<path d="M700.644 354.695L700.348 353.955C700.239 353.681 699.942 353.542 699.685 353.646L694.094 355.871C693.837 355.976 693.715 356.28 693.824 356.55L694.121 357.291C694.23 357.565 694.526 357.704 694.783 357.6L700.374 355.375C700.631 355.27 700.753 354.97 700.644 354.695Z" fill="#31DAE7"/>
<path d="M701.908 357.869L701.612 357.129C701.503 356.855 701.206 356.715 700.949 356.82L695.358 359.045C695.101 359.149 694.979 359.45 695.088 359.724L695.384 360.464C695.493 360.739 695.79 360.878 696.047 360.773L701.638 358.549C701.895 358.444 702.017 358.144 701.908 357.869Z" fill="#31DAE7"/>
<path d="M703.178 361.044L702.881 360.303C702.772 360.029 702.476 359.89 702.218 359.994L696.628 362.219C696.37 362.324 696.248 362.624 696.357 362.898L696.654 363.639C696.763 363.913 697.059 364.052 697.317 363.948L702.907 361.723C703.165 361.618 703.287 361.318 703.178 361.044Z" fill="#31DAE7"/>
<path d="M704.442 364.218L704.146 363.478C704.037 363.203 703.74 363.064 703.483 363.169L697.892 365.394C697.635 365.498 697.513 365.798 697.622 366.073L697.919 366.813C698.028 367.087 698.324 367.227 698.581 367.122L704.172 364.897C704.429 364.793 704.551 364.492 704.442 364.218Z" fill="#31DAE7"/>
<path d="M705.711 367.392L705.414 366.652C705.305 366.378 705.009 366.238 704.751 366.343L699.161 368.568C698.904 368.672 698.781 368.973 698.891 369.247L699.187 369.987C699.296 370.262 699.593 370.401 699.85 370.296L705.441 368.071C705.698 367.967 705.82 367.667 705.711 367.392Z" fill="#31DAE7"/>
<path d="M706.975 370.567L706.679 369.826C706.57 369.552 706.273 369.413 706.016 369.517L700.426 371.742C700.168 371.847 700.046 372.147 700.155 372.421L700.452 373.162C700.561 373.436 700.857 373.575 701.115 373.471L706.705 371.246C706.962 371.141 707.085 370.836 706.975 370.567Z" fill="#31DAE7"/>
<path d="M708.245 373.74L707.949 372.996C707.84 372.721 707.543 372.582 707.286 372.687L701.695 374.912C701.438 375.016 701.316 375.317 701.425 375.591L701.721 376.331C701.83 376.605 702.127 376.745 702.384 376.64L707.975 374.415C708.232 374.311 708.354 374.01 708.245 373.736V373.74Z" fill="#31DAE7"/>
<path d="M709.51 376.915L709.213 376.174C709.104 375.9 708.808 375.761 708.55 375.865L702.96 378.09C702.702 378.19 702.58 378.495 702.689 378.77L702.986 379.51C703.095 379.784 703.391 379.923 703.649 379.819L709.239 377.594C709.497 377.489 709.619 377.189 709.51 376.915Z" fill="#31DAE7"/>
<path d="M724.956 373.644L701.577 406.884C701.525 406.958 701.485 407.041 701.455 407.128L699.074 414.43C698.795 415.279 699.78 415.98 700.496 415.444L706.753 410.733C706.832 410.677 706.897 410.607 706.954 410.529L730.394 377.202C730.694 376.775 730.577 376.187 730.136 375.904L726.203 373.396C725.788 373.131 725.243 373.239 724.96 373.64L724.956 373.644Z" fill="#F36B80"/>
<path d="M706.924 410.568L706.867 410.65L700.827 415.196L699.179 414.095L701.438 407.171C703.208 408.138 705.328 409.131 706.919 410.568H706.924Z" fill="#F2F2F2"/>
<path d="M488.101 13.7896C491.467 16.4717 497.319 25.1017 504.79 31.1583C509.159 34.7026 512.526 33.8013 518.103 34.4719C544.565 37.6635 537.396 43.067 540.57 43.5982C539.668 45.6708 531.426 63.1658 529.886 66.7058C528.465 69.9671 526.009 71.4301 522.451 70.938C516.978 70.1848 511.457 69.6187 506.067 68.4562C492.256 65.4648 484.573 58.5678 474.674 50.1904C472.048 47.9698 471.403 45.1962 472.763 42.0568C479.1 27.4399 487.42 15.135 488.105 13.7896H488.101Z" fill="#B984F9"/>
<path d="M543.435 64.6507C543.318 70.4069 543.758 71.5651 541.281 70.6899C539.79 70.1631 538.346 69.4795 536.938 68.7523C535.943 68.2385 535.904 67.5636 536.711 66.7538C537.884 65.5738 539.092 64.4286 540.269 63.2835C539.41 61.0237 540.396 58.3981 542.511 57.1615C542.943 56.909 542.629 57.4446 546.314 48.9757C534.125 47.4735 525.53 46.4677 510.659 44.6433C506.682 44.1556 503.15 42.6143 500.076 40.0453C489.457 31.1715 478.838 22.302 468.224 13.4195C466.785 12.2134 466.602 10.45 467.744 9.09149C468.616 8.05085 469.776 8.00295 471.024 8.1597C474.416 8.58641 507.685 12.7098 511.065 13.106C515.504 13.6242 519.411 15.2918 522.843 18.1612C533.275 26.8826 543.736 35.5779 554.181 44.2819C555.615 45.4749 556.003 46.5722 555.497 47.9002C554.944 49.3589 553.736 50.0555 551.909 49.6637C550.592 49.3806 550.007 49.7769 549.554 50.996C547.504 56.5041 546.074 57.7232 546.571 59.7348C546.955 61.2849 545.106 63.9758 543.435 64.6464V64.6507Z" fill="#E4C4FF"/>
<path d="M598.626 455.799L604.688 461.572C619.031 475.231 630.727 491.411 639.187 509.303L640.116 511.266C640.116 511.266 655.993 512.669 658.209 498.335C644.28 482.629 632.811 465.866 623.348 447.217L620.479 440.516L598.622 455.799H598.626Z" fill="#31DAE7"/>
<path d="M620.47 440.494C621.25 441.609 616.99 445.919 610.959 450.121C604.928 454.323 599.376 456.874 598.596 455.76C597.815 454.645 602.102 450.282 608.137 446.08C614.168 441.878 619.693 439.379 620.47 440.494Z" fill="#F2F2F2"/>
<path d="M620.496 440.537L620.479 440.516C620.479 440.516 608.395 450.731 603.41 451.771L604.95 453.861C606.768 452.877 608.835 451.601 610.963 450.121C616.924 445.967 621.154 441.709 620.5 440.533L620.496 440.537Z" fill="#F2F2F2"/>
<path d="M636.639 470.194C636.661 471.953 635.985 479.555 623.321 482.725C624.154 483.857 624.974 485.002 625.776 486.156C633.792 483.792 637.398 479.682 639.016 476.551C639.273 476.055 639.583 475.393 639.788 474.879C638.719 473.329 637.668 471.766 636.635 470.194H636.639Z" fill="#F36B80"/>
<path d="M624.46 480.479L605.821 479.812L610.239 483.557L607.601 488.338L625.24 483.849L624.46 480.479Z" fill="#F36B80"/>
<path d="M626.16 484.807L619.536 496.323L624.193 494.551L625.986 498.209L629.099 486.095L626.16 484.807Z" fill="#F36B80"/>
<path d="M628.686 487.928C625.415 488.159 622.568 485.616 622.328 482.251C622.088 478.885 624.547 475.967 627.822 475.737C631.093 475.506 633.941 478.049 634.18 481.415C634.42 484.78 631.961 487.698 628.686 487.928Z" fill="#F36B80"/>
<path d="M668.247 226.604L629 191.636C626.449 189.363 627.513 184.687 631.032 182.697L662.356 164.989C664.362 163.856 666.621 163.961 668.073 165.254L707.321 200.222C709.872 202.495 708.808 207.172 705.288 209.162L673.964 226.87C671.958 228.002 669.7 227.898 668.247 226.604Z" fill="#31DAE7"/>
<path d="M666.39 198.786L663.119 171.92C662.993 170.893 663.743 169.791 664.794 169.465C665.845 169.138 666.8 169.708 666.922 170.736L669.935 195.459L699.698 202.643C700.666 202.878 701.115 203.923 700.697 204.977C700.278 206.031 699.149 206.697 698.176 206.462L666.39 198.786Z" fill="white"/>
<path d="M153.873 75.7231L157.928 83.7348L167.095 83.4431L171.006 92.7436L180.67 89.4214L185.559 99.7495L194.834 97.7857L201.166 106.956L197.69 109.346L192.959 102.493L183.169 104.561L178.468 94.6377L168.643 98.0121L164.326 87.745L155.377 88.0367L151.618 80.6085L145.779 82.028L144.78 77.9307L153.873 75.7231Z" fill="#E4C4FF"/>
<path d="M644.708 280.709L653.041 284.088L659.757 277.853L668.823 282.302L673.925 273.459L684.405 278.04L690.109 270.477L700.915 273.237L699.868 277.317L691.787 275.253L685.77 283.239L675.696 278.837L670.511 287.828L660.503 282.916L653.944 289.004L646.221 285.873L642.754 290.771L639.305 288.337L644.708 280.709Z" fill="#F36B80"/>
</g>
<defs>
<clipPath id="clip0_844_4966">
<rect width="779.069" height="570" fill="white"/>
</clipPath>
</defs>
</svg>
