<svg width="782" height="775" viewBox="0 0 782 775" fill="none" xmlns="http://www.w3.org/2000/svg">
<path d="M148.894 351.883L155.606 365.507C155.951 366.196 156.604 366.686 157.384 366.795L172.404 368.971C174.345 369.243 175.107 371.62 173.71 372.998L162.844 383.592C162.282 384.136 162.028 384.916 162.173 385.678L164.731 400.644C165.057 402.567 163.044 404.036 161.32 403.129L147.878 396.073C147.189 395.71 146.373 395.71 145.684 396.073L132.242 403.129C130.518 404.036 128.487 402.567 128.831 400.644L131.389 385.678C131.516 384.916 131.262 384.136 130.718 383.592L119.852 372.998C118.455 371.638 119.217 369.262 121.158 368.971L136.178 366.795C136.94 366.686 137.611 366.196 137.956 365.507L144.668 351.883C145.538 350.124 148.024 350.124 148.894 351.883Z" fill="#E0E0E0"/>
<path d="M87.4527 273.194L92.0966 282.609C92.3324 283.099 92.7859 283.426 93.3301 283.498L103.724 285.004C105.067 285.203 105.593 286.836 104.631 287.779L97.1032 295.108C96.7223 295.489 96.5409 296.015 96.6316 296.559L98.4093 306.917C98.6451 308.241 97.2484 309.257 96.0511 308.64L86.7453 303.761C86.2736 303.507 85.7113 303.507 85.2215 303.761L75.9156 308.64C74.7184 309.275 73.3216 308.259 73.5574 306.917L75.3351 296.559C75.4258 296.033 75.2444 295.489 74.8635 295.108L67.3354 287.779C66.374 286.836 66.9 285.185 68.2424 285.004L78.6366 283.498C79.1627 283.426 79.6343 283.081 79.8702 282.609L84.514 273.194C85.1126 271.979 86.836 271.979 87.4346 273.194H87.4527Z" fill="#E0E0E0"/>
<path d="M423.771 29.8249L427 36.3554C427.163 36.6819 427.49 36.9177 427.853 36.9721L435.054 38.0242C435.979 38.1512 436.342 39.294 435.689 39.9471L430.483 45.0263C430.211 45.2803 430.102 45.6612 430.156 46.024L431.39 53.1893C431.553 54.1145 430.574 54.8219 429.757 54.3866L423.318 50.9944C422.991 50.813 422.592 50.813 422.266 50.9944L415.826 54.3866C414.991 54.8219 414.03 54.1145 414.193 53.1893L415.427 46.024C415.481 45.6612 415.372 45.2803 415.1 45.0263L409.894 39.9471C409.223 39.294 409.586 38.1512 410.529 38.0242L417.731 36.9721C418.093 36.9177 418.42 36.6819 418.583 36.3554L421.812 29.8249C422.229 28.9905 423.426 28.9905 423.844 29.8249H423.771Z" fill="#E0E0E0"/>
<path d="M705.014 366.306L708.243 372.837C708.407 373.163 708.733 373.399 709.096 373.454L716.297 374.506C717.223 374.633 717.585 375.775 716.932 376.429L711.726 381.508C711.454 381.762 711.345 382.143 711.4 382.505L712.633 389.671C712.796 390.596 711.817 391.303 711.001 390.868L704.561 387.476C704.234 387.294 703.835 387.294 703.509 387.476L697.069 390.868C696.235 391.303 695.273 390.596 695.436 389.671L696.67 382.505C696.724 382.143 696.615 381.762 696.343 381.508L691.137 376.429C690.466 375.775 690.829 374.633 691.772 374.506L698.974 373.454C699.336 373.399 699.663 373.163 699.826 372.837L703.055 366.306C703.472 365.472 704.67 365.472 705.087 366.306H705.014Z" fill="#E0E0E0"/>
<path d="M630.551 336.246L635.866 347.021C636.138 347.565 636.664 347.946 637.262 348.037L649.144 349.76C650.668 349.978 651.285 351.864 650.178 352.935L641.58 361.315C641.144 361.751 640.945 362.368 641.035 362.966L643.067 374.794C643.321 376.317 641.725 377.478 640.364 376.753L629.734 371.166C629.19 370.875 628.537 370.875 627.993 371.166L617.363 376.753C616.002 377.478 614.406 376.317 614.66 374.794L616.691 362.966C616.8 362.368 616.601 361.751 616.147 361.315L607.549 352.935C606.442 351.864 607.059 349.978 608.583 349.76L620.465 348.037C621.063 347.946 621.589 347.565 621.861 347.021L627.176 336.246C627.866 334.867 629.843 334.867 630.514 336.246H630.551Z" fill="#E0E0E0"/>
<path d="M88.8326 467.817L92.6602 475.581C92.8597 475.98 93.2407 476.252 93.676 476.325L102.256 477.576C103.363 477.74 103.798 479.1 103 479.862L96.7961 485.903C96.4878 486.211 96.3426 486.665 96.4152 487.1L97.8845 495.644C98.0659 496.75 96.9231 497.585 95.9254 497.059L88.2522 493.032C87.8531 492.832 87.3996 492.832 87.0005 493.032L79.3272 497.059C78.3477 497.585 77.1867 496.732 77.3681 495.644L78.8375 487.1C78.91 486.665 78.7649 486.211 78.4565 485.903L72.2526 479.862C71.4545 479.082 71.8898 477.721 72.9964 477.576L81.5766 476.325C82.012 476.252 82.3929 475.98 82.5925 475.581L86.42 467.817C86.9098 466.819 88.3429 466.819 88.8326 467.817Z" fill="#E0E0E0"/>
<path d="M271.398 38.6425L250.573 38.7551L251.134 142.37L271.958 142.257L271.398 38.6425Z" fill="#E0E0E0"/>
<path d="M124.123 38.9292L70.1934 39.221L70.5028 96.4158L124.432 96.124L124.123 38.9292Z" fill="#EBEBEB"/>
<path d="M177.78 38.6384L123.851 38.9302L124.16 96.1251L178.09 95.8333L177.78 38.6384Z" fill="#F5F5F5"/>
<path d="M70.2731 55.0232C106.1 55.3135 142.035 55.1139 177.862 54.5335C178.606 54.5335 178.587 53.3906 177.862 53.3906C142.035 53.1911 106.1 53.3725 70.2731 54.0437C69.6381 54.0437 69.6381 55.0232 70.2731 55.0232Z" fill="#E0E0E0"/>
<path d="M134.552 95.1587L36.5791 95.6888L36.8313 142.308L134.804 141.778L134.552 95.1587Z" fill="#EBEBEB"/>
<path d="M232.048 94.6329L134.075 95.163L134.327 141.782L232.301 141.252L232.048 94.6329Z" fill="#F5F5F5"/>
<path d="M36.6422 108.661C101.729 109.405 167.033 108.733 232.12 107.699C232.863 107.699 232.845 106.557 232.12 106.557C167.033 106.212 101.729 106.248 36.6422 107.681C36.0073 107.681 36.0073 108.661 36.6422 108.661Z" fill="#E0E0E0"/>
<path d="M379.545 142.314H0V159.021H379.545V142.314Z" fill="#E0E0E0"/>
<path d="M77.5494 150.348H62.1484V207.326H77.5494V150.348Z" fill="#E0E0E0"/>
<path d="M307.546 150.348H292.146V207.326H307.546V150.348Z" fill="#E0E0E0"/>
<path d="M291.707 -1.67908e-06L270.883 0.112671L271.654 142.619L292.478 142.506L291.707 -1.67908e-06Z" fill="#EBEBEB"/>
<path d="M324.247 26.5262L291.886 26.7013L292.511 142.179L324.872 142.004L324.247 26.5262Z" fill="#F5F5F5"/>
<path d="M324.035 48.7976C324.035 49.106 316.797 49.3599 307.854 49.3599C298.911 49.3599 291.673 49.106 291.673 48.7976C291.673 48.4892 298.911 48.2352 307.854 48.2352C316.797 48.2352 324.035 48.4892 324.035 48.7976Z" fill="#E0E0E0"/>
<path d="M324.035 43.9379C324.035 44.2463 316.797 44.5003 307.854 44.5003C298.911 44.5003 291.673 44.2463 291.673 43.9379C291.673 43.6295 298.911 43.3756 307.854 43.3756C316.797 43.3756 324.035 43.6295 324.035 43.9379Z" fill="#E0E0E0"/>
<path d="M324.035 124.641C324.035 124.949 316.797 125.203 307.854 125.203C298.911 125.203 291.673 124.949 291.673 124.641C291.673 124.332 298.911 124.078 307.854 124.078C316.797 124.078 324.035 124.332 324.035 124.641Z" fill="#E0E0E0"/>
<path d="M324.035 119.801C324.035 120.109 316.797 120.363 307.854 120.363C298.911 120.363 291.673 120.109 291.673 119.801C291.673 119.492 298.911 119.238 307.854 119.238C316.797 119.238 324.035 119.492 324.035 119.801Z" fill="#E0E0E0"/>
<path d="M308.38 109.224C308.071 109.224 307.817 97.5776 307.817 83.2106C307.817 68.8437 308.071 57.1978 308.38 57.1978C308.688 57.1978 308.942 68.8437 308.942 83.2106C308.942 97.5776 308.688 109.224 308.38 109.224Z" fill="#E0E0E0"/>
<path d="M359.591 54.9116H324.381V142.075H359.591V54.9116Z" fill="#EBEBEB"/>
<path d="M286.976 24.3466C286.976 27.6481 284.292 30.3328 280.99 30.3328C277.689 30.3328 275.004 27.6481 275.004 24.3466C275.004 21.0451 277.689 18.3604 280.99 18.3604C284.292 18.3604 286.976 21.0451 286.976 24.3466Z" fill="#E0E0E0"/>
<path d="M282.86 40.8185H279.159V125.587H282.86V40.8185Z" fill="#E0E0E0"/>
<path d="M777.575 70.897H521.546V299.952H777.575V70.897Z" fill="#FAFAFA"/>
<path d="M777.592 299.951C777.592 299.951 777.556 298.482 777.519 295.706C777.519 292.895 777.483 288.795 777.447 283.426C777.41 272.669 777.356 256.959 777.302 236.933C777.229 196.916 777.12 139.72 777.011 70.8966L777.592 71.4771C703.853 71.5133 615.855 71.5496 521.581 71.5859H521.563L522.252 70.8966C522.216 154.232 522.198 232.652 522.162 299.951L521.563 299.353C597.951 299.48 661.876 299.588 706.737 299.661C729.194 299.734 746.863 299.788 758.962 299.824C764.985 299.861 769.628 299.879 772.785 299.897C774.327 299.897 775.524 299.915 776.358 299.933C777.157 299.933 777.592 299.969 777.592 299.969C777.592 299.969 777.211 299.988 776.431 300.006C775.615 300.006 774.454 300.024 772.93 300.042C769.792 300.042 765.202 300.078 759.216 300.115C747.153 300.151 729.521 300.205 707.118 300.278C662.148 300.35 598.096 300.459 521.545 300.586H520.946V299.988C520.928 232.688 520.892 154.268 520.855 70.9329V70.2435H521.563C615.837 70.2798 703.834 70.3161 777.574 70.3524H778.154V70.9329C778.027 139.92 777.918 197.224 777.846 237.332C777.773 257.304 777.737 272.977 777.701 283.698C777.664 288.995 777.646 293.076 777.628 295.852C777.61 298.591 777.556 299.969 777.556 299.969L777.592 299.951Z" fill="#E0E0E0"/>
<path d="M619.72 111.583C619.72 111.964 606.242 112.272 589.626 112.272C573.009 112.272 559.531 111.964 559.531 111.583C559.531 111.202 573.009 110.894 589.626 110.894C606.242 110.894 619.72 111.202 619.72 111.583Z" fill="#E0E0E0"/>
<path d="M728.215 128.783C728.215 129.164 691.191 129.473 645.532 129.473C599.873 129.473 562.85 129.164 562.85 128.783C562.85 128.402 599.873 128.094 645.532 128.094C691.191 128.094 728.215 128.402 728.215 128.783Z" fill="#E0E0E0"/>
<path d="M570.761 157.913H559.968V168.707H570.761V157.913Z" fill="#E0E0E0"/>
<path d="M597.317 157.913H586.523V168.707H597.317V157.913Z" fill="#E0E0E0"/>
<path d="M624.365 157.427H613.571V168.221H624.365V157.427Z" fill="#E0E0E0"/>
<path d="M650.413 157.913H639.62V168.707H650.413V157.913Z" fill="#E0E0E0"/>
<path d="M676.969 157.913H666.176V168.707H676.969V157.913Z" fill="#E0E0E0"/>
<path d="M703.526 157.913H692.732V168.707H703.526V157.913Z" fill="#E0E0E0"/>
<path d="M730.066 157.913H719.272V168.707H730.066V157.913Z" fill="#EBEBEB"/>
<path d="M570.761 180.845H559.968V191.639H570.761V180.845Z" fill="#EBEBEB"/>
<path d="M597.317 180.845H586.523V191.639H597.317V180.845Z" fill="#E0E0E0"/>
<path d="M623.873 180.845H613.08V191.639H623.873V180.845Z" fill="#EBEBEB"/>
<path d="M650.413 180.845H639.62V191.639H650.413V180.845Z" fill="#E0E0E0"/>
<path d="M676.969 180.845H666.176V191.639H676.969V180.845Z" fill="#E0E0E0"/>
<path d="M704.017 180.355H693.224V191.149H704.017V180.355Z" fill="#E0E0E0"/>
<path d="M730.066 180.845H719.272V191.639H730.066V180.845Z" fill="#E0E0E0"/>
<path d="M570.761 203.789H559.968V214.583H570.761V203.789Z" fill="#E0E0E0"/>
<path d="M597.808 203.3H587.015V214.093H597.808V203.3Z" fill="#E0E0E0"/>
<path d="M623.873 203.789H613.08V214.583H623.873V203.789Z" fill="#E0E0E0"/>
<path d="M650.413 203.789H639.62V214.583H650.413V203.789Z" fill="#EBEBEB"/>
<path d="M676.969 203.789H666.176V214.583H676.969V203.789Z" fill="#E0E0E0"/>
<path d="M703.526 203.789H692.732V214.583H703.526V203.789Z" fill="#E0E0E0"/>
<path d="M730.066 203.789H719.272V214.583H730.066V203.789Z" fill="#E0E0E0"/>
<path d="M570.761 226.722H559.968V237.515H570.761V226.722Z" fill="#E0E0E0"/>
<path d="M597.317 226.722H586.523V237.515H597.317V226.722Z" fill="#E0E0E0"/>
<path d="M623.873 226.722H613.08V237.515H623.873V226.722Z" fill="#E0E0E0"/>
<path d="M650.905 226.232H640.111V237.025H650.905V226.232Z" fill="#E0E0E0"/>
<path d="M676.969 226.722H666.176V237.515H676.969V226.722Z" fill="#E0E0E0"/>
<path d="M703.526 226.722H692.732V237.515H703.526V226.722Z" fill="#EBEBEB"/>
<path d="M730.066 226.722H719.272V237.515H730.066V226.722Z" fill="#E0E0E0"/>
<path d="M570.761 249.65H559.968V260.443H570.761V249.65Z" fill="#E0E0E0"/>
<path d="M597.317 249.65H586.523V260.443H597.317V249.65Z" fill="#EBEBEB"/>
<path d="M623.873 249.65H613.08V260.443H623.873V249.65Z" fill="#E0E0E0"/>
<path d="M650.413 249.65H639.62V260.443H650.413V249.65Z" fill="#E0E0E0"/>
<path d="M676.969 249.65H666.176V260.443H676.969V249.65Z" fill="#E0E0E0"/>
<path d="M704.017 249.16H693.224V259.953H704.017V249.16Z" fill="#E0E0E0"/>
<path d="M730.066 249.65H719.272V260.443H730.066V249.65Z" fill="#E0E0E0"/>
<path d="M33.7777 655.44V722.141H22.6396V729.379H33.7777V774.022H241.935V733.406H226.516V724.554H241.935V711.275H248.792V705.234H240.647V655.422H33.7777V655.44Z" fill="#EBEBEB"/>
<path d="M186.66 655.623V773.262H241.933V732.646H226.514V724.537L241.933 724.827V711.549H248.917L248.79 704.692L240.645 704.492V655.442L186.66 655.623Z" fill="#E0E0E0"/>
<path d="M190.598 728.42C190.598 728.837 152.939 729.163 106.482 729.163C60.0256 729.163 22.3486 728.837 22.3486 728.42C22.3486 728.002 60.0074 727.676 106.482 727.676C152.957 727.676 190.598 728.002 190.598 728.42Z" fill="#E0E0E0"/>
<path d="M190.598 721.632C190.598 722.049 152.939 722.376 106.482 722.376C60.0256 722.376 22.3486 722.049 22.3486 721.632C22.3486 721.215 60.0074 720.888 106.482 720.888C152.957 720.888 190.598 721.215 190.598 721.632Z" fill="#E0E0E0"/>
<path d="M201.41 703.404C201.41 703.821 163.752 704.148 117.295 704.148C70.8381 704.148 33.1611 703.821 33.1611 703.404C33.1611 702.987 70.8199 702.66 117.295 702.66C163.77 702.66 201.41 702.987 201.41 703.404Z" fill="#E0E0E0"/>
<path d="M202.444 753.088C202.444 753.506 164.786 753.832 118.329 753.832C71.8722 753.832 34.1953 753.506 34.1953 753.088C34.1953 752.671 71.8541 752.345 118.329 752.345C164.804 752.345 202.444 752.671 202.444 753.088Z" fill="#E0E0E0"/>
<path d="M60.789 544.298V607.516H50.2314V614.373H60.789V656.676H258.062V618.182H243.441V609.802H258.062V597.231H264.556V591.517H256.847V544.316H60.789V544.298Z" fill="#F5F5F5"/>
<path d="M205.671 544.479V655.968H258.059V617.475H243.457V609.802L258.059 610.056V597.485H264.681L264.554 590.99L256.844 590.809V544.298L205.671 544.479Z" fill="#E0E0E0"/>
<path d="M209.41 613.467C209.41 613.848 173.711 614.175 129.685 614.175C85.6586 614.175 49.959 613.866 49.959 613.467C49.959 613.068 85.6405 612.76 129.685 612.76C173.729 612.76 209.41 613.068 209.41 613.467Z" fill="#E0E0E0"/>
<path d="M209.41 607.042C209.41 607.423 173.711 607.75 129.685 607.75C85.6586 607.75 49.959 607.441 49.959 607.042C49.959 606.643 85.6405 606.335 129.685 606.335C173.729 606.335 209.41 606.643 209.41 607.042Z" fill="#E0E0E0"/>
<path d="M219.642 589.758C219.642 590.139 183.942 590.466 139.916 590.466C95.8901 590.466 60.1904 590.157 60.1904 589.758C60.1904 589.359 95.8719 589.051 139.916 589.051C183.96 589.051 219.642 589.359 219.642 589.758Z" fill="#E0E0E0"/>
<path d="M220.638 636.849C220.638 637.23 184.938 637.557 140.912 637.557C96.8862 637.557 61.1865 637.248 61.1865 636.849C61.1865 636.45 96.868 636.142 140.912 636.142C184.956 636.142 220.638 636.45 220.638 636.849Z" fill="#E0E0E0"/>
<path d="M662.675 571.833C651.882 566.264 639.183 565.538 627.193 567.516C620.753 568.586 614.041 570.509 609.67 575.334C605.298 580.177 604.463 588.667 609.488 592.821C612.481 595.288 616.653 595.669 620.535 595.633C629.914 595.524 640.326 593.873 647.818 599.515C652.099 602.725 654.929 608.077 660.045 609.673C665.051 611.215 670.693 608.276 673.341 603.759C675.99 599.243 676.08 593.601 674.847 588.522C674.847 588.522 673.541 577.438 662.675 571.833Z" fill="#EBEBEB"/>
<path d="M687.38 524.125C680.777 533.54 667.952 530.42 662.02 524.669C656.07 518.919 653.566 510.575 651.281 502.629C646.056 484.471 640.778 465.406 644.678 446.921C645.839 441.388 647.907 435.874 651.789 431.774C655.671 427.674 661.657 425.226 667.117 426.677C673.575 428.382 677.602 434.713 680.504 440.735C689.048 458.44 693.565 478.068 693.62 497.731C693.656 506.91 692.568 516.543 687.398 524.125" fill="#EBEBEB"/>
<path d="M705.503 537.638C698.337 529.131 696.977 516.741 700.17 506.093C703.362 495.445 710.564 486.375 718.854 478.992C728.577 470.321 740.023 463.572 752.322 459.237C757.166 457.532 762.263 456.189 767.379 456.679C772.494 457.169 777.628 459.781 780.004 464.316C783.523 471.028 780.149 479.173 776.503 485.83C770.063 497.549 762.717 508.741 754.517 519.299C747.932 527.788 740.386 536.169 730.337 540.015C720.305 543.86 709.875 543.407 704.541 536.441" fill="#EBEBEB"/>
<path d="M687.835 666.272C687.708 666.272 687.508 664.749 687.236 661.991C686.928 658.871 686.547 654.953 686.093 650.309C685.549 645.393 684.823 639.534 683.463 633.167C682.102 626.818 679.962 619.924 677.241 612.94C674.411 605.993 670.946 599.68 666.919 594.637C662.91 589.558 658.248 585.894 653.858 583.771C649.487 581.613 645.568 580.742 642.865 580.343C640.126 580.071 638.603 579.853 638.603 579.726C638.603 579.599 640.126 579.581 642.938 579.653C645.713 579.835 649.795 580.542 654.403 582.646C659.028 584.696 663.98 588.415 668.171 593.603C672.416 598.755 675.989 605.213 678.873 612.269C681.667 619.38 683.753 626.346 685.059 632.822C686.365 639.298 686.946 645.23 687.345 650.182C687.708 655.152 687.853 659.161 687.925 661.937C687.98 664.712 687.962 666.254 687.835 666.254V666.272Z" fill="#E0E0E0"/>
<path d="M687.038 657.273C687.038 657.273 686.948 656.584 686.929 655.278C686.929 653.79 686.929 651.904 686.929 649.6C686.929 644.666 686.929 637.537 686.676 628.721C686.24 611.107 684.716 592.132 681.796 565.394C679.02 540.252 675.302 510.992 671.365 491.963C670.531 487.627 669.678 483.745 668.88 480.335C668.118 476.925 667.465 473.968 666.848 471.591C666.304 469.342 665.869 467.528 665.524 466.077C665.234 464.807 665.125 464.136 665.18 464.118C665.234 464.118 665.47 464.734 665.869 465.986C666.304 467.419 666.848 469.215 667.52 471.428C668.245 473.786 669.007 476.725 669.86 480.117C670.749 483.509 671.692 487.391 672.617 491.709C676.499 508.942 680.617 533.032 683.592 559.843C686.53 586.636 687.855 611.034 687.963 628.703C688.072 637.537 687.873 644.684 687.655 649.618C687.51 651.922 687.401 653.808 687.31 655.296C687.22 656.602 687.129 657.273 687.075 657.273H687.038Z" fill="#E0E0E0"/>
<path d="M686.908 610.216C686.781 610.216 686.799 608.112 686.944 604.284C687.162 600.475 687.688 594.96 688.758 588.212C689.901 581.482 691.498 573.482 693.983 564.775C695.071 560.802 697.611 551.279 703.778 537.057C711.905 517.774 722.952 502.028 732.549 492.251C734.798 489.657 737.301 487.789 739.315 485.956C740.349 485.086 741.274 484.197 742.199 483.507C743.142 482.854 744.013 482.256 744.829 481.693C747.986 479.535 749.764 478.392 749.818 478.501C750.108 478.882 742.743 483.217 733.437 493.104C724.186 502.972 713.447 518.627 705.393 537.746C700.894 548.122 697.756 557.356 695.543 565.21C692.967 573.827 691.262 581.736 689.974 588.411C688.74 595.087 688.033 600.547 687.616 604.338C687.271 608.13 687.017 610.216 686.89 610.216H686.908Z" fill="#E0E0E0"/>
<path d="M732.386 693.228L727.67 757.824H644.697L639.98 693.228H732.386Z" fill="#E0E0E0"/>
<path d="M740.405 667.758H630.077V693.227H740.405V667.758Z" fill="#E0E0E0"/>
<path d="M740.405 755.356V762.412H735.216H631.891V755.356H740.405Z" fill="#EBEBEB"/>
<path d="M730.138 774.84L735.217 762.414H635.846L641.778 774.84H730.138Z" fill="#E0E0E0"/>
<path d="M641.524 714.342C641.524 714.342 641.633 714.559 641.905 714.94C642.231 715.376 642.649 715.92 643.138 716.591C644.318 718.097 645.932 720.165 647.964 722.777L648.181 723.049L648.381 722.759C651.428 718.55 655.474 712.945 660.263 706.324H659.573C663.111 711.33 667.047 716.899 671.274 722.886L671.636 723.412L672.054 722.922C676.371 717.788 681.051 712.219 685.913 706.414H685.115C685.35 706.705 685.622 707.031 685.876 707.358C690.176 712.745 694.348 717.97 698.284 722.904L698.702 723.43L699.082 722.886C703.291 716.936 707.227 711.367 710.783 706.324L710.112 706.36C715.88 712.927 720.76 718.496 724.515 722.777L724.769 723.067L724.968 722.74C726.873 719.548 728.379 717.008 729.485 715.158C729.957 714.342 730.338 713.67 730.646 713.144C730.9 712.691 731.027 712.437 730.991 712.419C730.973 712.419 730.809 712.618 730.501 713.054C730.156 713.562 729.739 714.197 729.213 714.995C728.052 716.809 726.474 719.312 724.479 722.432L724.932 722.396C721.231 718.06 716.424 712.437 710.746 705.779L710.384 705.362L710.057 705.816C706.465 710.822 702.493 716.373 698.248 722.287H699.046C695.128 717.317 690.974 712.092 686.675 706.705C686.421 706.378 686.149 706.052 685.913 705.743L685.514 705.253L685.115 705.743C680.271 711.548 675.591 717.135 671.292 722.269L672.072 722.305C667.809 716.355 663.836 710.804 660.263 705.834L659.918 705.344L659.573 705.834C654.893 712.509 650.921 718.187 647.946 722.432H648.363C646.24 719.874 644.553 717.861 643.338 716.391C642.794 715.757 642.34 715.249 641.996 714.831C641.687 714.487 641.524 714.305 641.506 714.323L641.524 714.342Z" fill="#F5F5F5"/>
<path d="M638.819 692.792C638.819 693.082 659.608 693.299 685.258 693.299C710.908 693.299 731.696 693.064 731.696 692.792C731.696 692.519 710.908 692.284 685.258 692.284C659.608 692.284 638.819 692.519 638.819 692.792Z" fill="#F5F5F5"/>
<path d="M634.63 763.102C634.63 763.392 657.232 763.61 685.096 763.61C712.959 763.61 735.561 763.374 735.561 763.102C735.561 762.83 712.977 762.594 685.096 762.594C657.214 762.594 634.63 762.83 634.63 763.102Z" fill="#F5F5F5"/>
<path d="M758.599 774.529C758.599 774.783 597.733 775.001 399.335 775.001C200.937 775.001 40.0342 774.783 40.0342 774.529C40.0342 774.275 200.864 774.057 399.335 774.057C597.805 774.057 758.599 774.275 758.599 774.529Z" fill="#263238"/>
<path d="M431.044 100.245C431.824 86.6221 440.205 78.2232 451.941 71.2756C463.696 64.3098 478.915 63.6205 491.251 69.4979C499.486 73.4161 506.706 80.128 515.776 81.2889C530.687 83.2118 544.8 69.389 559.439 72.8538C568.11 74.9036 574.695 83.5564 574.368 92.4632C574.042 101.352 566.804 109.515 558.006 110.894C567.765 112.308 573.298 124.662 569.688 133.841C566.078 143.02 555.829 148.353 545.961 148.57C536.093 148.788 526.606 144.761 518.08 139.809C509.536 134.857 501.572 128.907 492.684 124.644C483.777 120.381 473.546 117.896 464.004 120.435C451.089 123.864 441.946 136.054 438.572 148.988C435.198 161.922 436.649 175.581 438.663 188.787C440.676 201.993 443.216 215.326 441.964 228.623C441.819 230.183 441.474 231.978 440.096 232.722C438.118 233.811 435.833 231.942 434.382 230.219C417.892 210.664 405.285 187.826 397.521 163.445C393.022 149.278 390.537 135.51 395.943 121.669C401.348 107.828 419.579 94.6582 431.044 100.282" fill="#263238"/>
<path d="M418.474 166.13L440.296 300.801C444.378 325.944 460.722 350.251 500.177 341.998C533.881 332.256 531.378 308.003 526.988 278.126C526.988 278.126 564.066 268.476 560.746 230.781C559.15 212.568 552.783 175.308 546.633 141.677C540.03 105.542 506.762 80.581 470.227 84.2453L466.599 84.6081C427.653 90.8301 411.181 127.382 418.492 166.148L418.474 166.13Z" fill="#FFBF9D"/>
<path d="M526.986 278.109C526.986 278.109 503.386 281.882 476.502 268.549C476.502 268.549 491.286 296.557 528.51 289.392L526.986 278.109Z" fill="#FF9A6C"/>
<path d="M533.865 179.374C534.246 182.204 532.178 184.87 529.221 185.324C526.282 185.777 523.579 183.855 523.199 181.025C522.818 178.195 524.886 175.528 527.824 175.075C530.763 174.621 533.466 176.544 533.865 179.374Z" fill="#263238"/>
<path d="M540.394 160.942C539.795 161.704 535.423 159.11 529.637 159.709C523.85 160.217 519.895 163.627 519.206 162.974C518.861 162.684 519.424 161.36 521.129 159.818C522.816 158.294 525.791 156.679 529.401 156.335C533.011 155.99 536.167 157.006 538.054 158.203C539.976 159.382 540.702 160.598 540.412 160.942H540.394Z" fill="#263238"/>
<path d="M479.644 182.836C480.025 185.666 477.957 188.332 475 188.786C472.062 189.239 469.359 187.316 468.978 184.486C468.597 181.657 470.665 178.99 473.604 178.536C476.542 178.083 479.245 180.006 479.644 182.836Z" fill="#263238"/>
<path d="M483.632 167.743C483.034 168.505 478.662 165.911 472.875 166.51C467.089 167.018 463.134 170.428 462.445 169.775C462.1 169.485 462.644 168.16 464.368 166.637C466.055 165.113 469.03 163.498 472.622 163.154C476.231 162.809 479.388 163.843 481.274 165.022C483.179 166.201 483.923 167.417 483.632 167.761V167.743Z" fill="#263238"/>
<path d="M508.94 208.541C508.885 208.214 512.423 207.235 518.173 205.892C519.642 205.584 521.003 205.149 521.148 204.115C521.384 203.008 520.604 201.484 519.715 199.834C517.974 196.405 516.141 192.795 514.219 189.022C506.545 173.621 500.831 160.887 501.448 160.578C502.065 160.27 508.795 172.515 516.486 187.934C518.336 191.743 520.114 195.353 521.819 198.836C522.545 200.45 523.706 202.264 523.162 204.55C522.871 205.693 521.874 206.6 520.949 206.963C520.023 207.343 519.207 207.452 518.481 207.561C512.64 208.468 509.012 208.867 508.958 208.523L508.94 208.541Z" fill="#263238"/>
<path d="M482.853 144.906C482.436 146.539 476.594 146.375 469.883 147.881C463.153 149.242 457.874 151.781 456.822 150.457C456.35 149.822 457.148 148.244 459.216 146.502C461.248 144.761 464.604 142.965 468.649 142.094C472.676 141.242 476.467 141.514 479.043 142.276C481.637 143.038 483.016 144.144 482.853 144.906Z" fill="#263238"/>
<path d="M536.583 144.416C535.694 145.83 531.576 144.869 526.769 145.286C521.962 145.54 518.007 147.064 516.937 145.776C516.465 145.141 516.973 143.762 518.606 142.348C520.22 140.933 523.05 139.627 526.352 139.391C529.653 139.155 532.628 140.062 534.424 141.241C536.256 142.42 536.945 143.726 536.564 144.397L536.583 144.416Z" fill="#263238"/>
<path d="M424.351 193.701C423.679 193.484 397.703 188.659 401.113 214.309C404.524 239.977 429.575 231.251 429.521 230.508C429.466 229.764 424.332 193.701 424.332 193.701H424.351Z" fill="#FFBF9D"/>
<path d="M420.416 221.818C420.289 221.745 420.017 222.199 419.31 222.634C418.62 223.07 417.387 223.469 415.972 223.142C413.124 222.507 410.276 218.498 409.532 213.891C409.151 211.569 409.351 209.283 409.931 207.324C410.457 205.347 411.51 203.877 412.834 203.442C414.158 202.952 415.228 203.642 415.627 204.313C416.063 204.984 415.972 205.51 416.117 205.546C416.19 205.601 416.607 205.038 416.262 204.004C416.081 203.515 415.7 202.952 415.047 202.535C414.357 202.118 413.432 201.973 412.489 202.209C410.53 202.608 408.988 204.657 408.353 206.816C407.609 208.975 407.337 211.569 407.755 214.181C408.607 219.333 411.89 223.813 415.754 224.394C417.623 224.63 419.056 223.886 419.745 223.178C420.453 222.435 420.507 221.854 420.416 221.818Z" fill="#FF9A6C"/>
<path d="M543.568 106.542C539.469 99.4854 532.902 94.1703 525.936 89.9256C510.898 80.783 493.085 75.9396 475.543 77.427C458.002 78.9145 440.896 86.9869 429.449 100.356C420.289 111.059 414.992 124.754 413.305 138.74C411.618 152.726 413.395 166.985 417.259 180.517C418.946 186.467 421.232 192.58 425.93 196.607C428.869 199.111 433.603 200.489 436.415 197.841C438.066 196.281 438.483 193.85 438.809 191.601C441.766 171.247 444.505 149.389 435.308 130.977C439.59 124.065 444.723 117.517 451.399 112.891C458.092 108.265 466.491 105.744 474.473 107.34C486.3 109.716 494.5 120.165 504.44 127.022C518.644 136.8 537.709 139.121 553.854 133.045L543.587 106.56L543.568 106.542Z" fill="#263238"/>
<path d="M514.036 224.179C513.619 226.591 513.202 229.058 512.113 231.253C511.025 233.448 509.193 235.407 506.817 236.024C504.295 236.677 501.501 235.679 499.633 233.865C497.765 232.033 496.731 229.494 496.313 226.918C495.932 224.578 496.422 221.603 498.653 220.859C499.579 220.551 500.594 220.714 501.574 220.895C505.946 221.675 510.299 222.473 514.671 223.272" fill="#FF9A6C"/>
<path d="M511.296 235.117C511.151 234.754 508.738 236.387 504.693 235.661C502.734 235.316 500.466 234.282 498.906 232.251C497.346 230.255 496.512 227.28 497.092 224.396C497.219 223.689 497.491 222.999 497.764 222.364C498.144 221.766 498.054 221.802 498.598 221.766C499.124 221.802 499.995 222.002 500.684 222.129C501.41 222.256 502.135 222.401 502.843 222.528C505.636 223.036 508.176 223.453 510.298 223.779C514.561 224.432 517.228 224.686 517.282 224.378C517.337 224.088 514.779 223.29 510.607 222.256C508.521 221.73 506.017 221.149 503.242 220.532C502.534 220.387 501.827 220.224 501.101 220.061C500.339 219.916 499.741 219.716 498.707 219.607C498.199 219.571 497.528 219.643 496.929 220.024C496.349 220.423 496.04 220.931 495.823 221.349C495.442 222.183 495.115 223.017 494.952 223.924C494.226 227.516 495.333 231.09 497.346 233.502C499.396 235.951 502.244 236.985 504.512 237.167C506.815 237.384 508.666 236.822 509.79 236.278C510.915 235.716 511.405 235.189 511.332 235.081L511.296 235.117Z" fill="#263238"/>
<path d="M568.038 78.0782C568.038 78.0782 568.274 78.6406 568.546 79.7652C568.727 80.9081 568.999 82.6132 568.709 84.8263C568.292 89.1618 565.752 95.6559 559.403 100.59C553.091 105.597 543.113 107.61 532.828 106.05C522.416 104.617 512.003 99.6105 501.101 95.1299C490.253 90.6493 479.043 87.6199 469.029 89.452C459.016 91.1572 451.252 96.9076 446.155 102.549C440.967 108.245 438.064 113.905 436.377 117.859C434.727 121.868 434.164 124.208 434.001 124.172C433.946 124.172 434.055 123.574 434.327 122.449C434.545 121.324 435.071 119.71 435.779 117.624C437.302 113.542 440.078 107.701 445.284 101.769C450.4 95.9099 458.327 89.8148 468.775 87.9464C479.242 85.951 490.816 89.0711 501.754 93.588C512.729 98.123 522.978 103.075 533.082 104.526C543.059 106.141 552.637 104.291 558.714 99.6649C564.882 95.0755 567.494 88.926 568.092 84.7538C568.745 80.4908 567.838 78.1145 568.056 78.0964L568.038 78.0782Z" fill="#455A64"/>
<path d="M399.554 156.264C399.372 156.264 399.372 153.47 400.551 149.171C401.676 144.89 404.125 139.103 408.333 133.716C410.42 131.013 412.741 128.727 415.009 126.841C417.276 124.954 419.744 123.557 422.047 123.14C424.351 122.705 426.274 123.158 427.399 123.739C428.56 124.337 428.977 124.936 428.904 125.008C428.832 125.262 426.455 123.231 422.283 124.301C418.256 125.335 413.721 129.67 409.64 134.75C405.576 139.938 403.055 145.434 401.658 149.516C400.225 153.615 399.808 156.3 399.517 156.264H399.554Z" fill="#455A64"/>
<path d="M406.354 178.466C406.173 178.43 406.408 175.655 407.805 171.392C409.184 167.147 411.959 161.487 416.367 156.209C420.793 150.948 425.873 147.211 429.809 145.089C433.745 142.948 436.448 142.241 436.503 142.404C436.612 142.658 434.108 143.764 430.408 146.105C426.725 148.426 421.936 152.181 417.655 157.279C413.392 162.394 410.562 167.764 408.912 171.809C407.261 175.854 406.626 178.521 406.336 178.466H406.354Z" fill="#455A64"/>
<path d="M544.582 323.783C544.582 323.783 572.101 359.284 578.722 372.616C585.343 385.949 632.797 533.265 632.797 533.265L612.208 541.918L544.582 323.783Z" fill="#455A64"/>
<path d="M433.872 290.552V272.757L533.842 305.264L560.635 348.147L581.278 408.027L523.411 321.046L433.872 290.552Z" fill="#EBEBEB"/>
<path d="M427.923 307.658C427.923 307.658 385.493 358.414 386.418 391.392C387.325 423.881 431.387 621.3 431.387 621.3L420.721 656.582L409.166 774.166H649.504L632.779 533.266C630.112 533.103 580.082 395.202 580.082 395.202L524.174 317.562L432.113 284.384L427.923 307.64V307.658Z" fill="#455A64"/>
<path d="M611.085 475.888C611.085 475.888 627.901 475.216 636.681 479.135C645.46 483.053 652.88 481.094 659.102 493.248C665.306 505.401 672.562 510.88 674.085 529.292C675.609 547.704 655.728 590.351 642.594 596.338C629.461 602.324 611.103 475.869 611.103 475.869L611.085 475.888Z" fill="#455A64"/>
<g opacity="0.3">
<path d="M423.062 474.218C423.062 474.218 521.326 566.461 533.825 575.277C546.323 584.093 548.174 639.874 563.575 640.944C578.975 641.996 628.861 605.099 628.861 605.099L481.037 465.838L423.062 474.218Z" fill="black"/>
</g>
<path d="M561.434 556.811C561.434 556.811 540.065 584.166 537.616 591.005C535.167 597.862 532.791 602.415 535.403 604.701C538.015 606.987 540.283 607.259 542.895 606.261C546.378 604.937 563.557 582.28 563.557 582.28C563.557 582.28 540.773 614.769 539.739 620.374C538.705 626.016 543.167 628.7 548.392 627.721C553.616 626.741 563.557 612.048 563.557 612.048C563.557 612.048 549.462 628.374 552.437 631.149C555.412 633.925 558.84 634.251 562.758 632.292C566.677 630.333 576.636 617.435 576.636 617.435C576.636 617.435 569.779 624.782 573.534 626.578C577.289 628.374 577.615 628.573 580.88 625.852C584.146 623.149 612.952 594.942 612.952 594.942L594.758 582.516L561.452 556.793L561.434 556.811Z" fill="#FFBF9D"/>
<path d="M570.196 573.519C570.305 573.61 568.981 575.333 566.84 578.109C564.536 581.12 561.67 584.839 558.514 588.956C555.23 593.183 552.165 596.938 549.861 599.586C547.557 602.235 546.033 603.777 545.943 603.704C545.834 603.614 547.176 601.908 549.353 599.169C551.675 596.176 554.577 592.475 557.77 588.376C561.035 584.149 564.047 580.358 566.332 577.691C568.6 575.007 570.105 573.447 570.196 573.537V573.519Z" fill="#FF9A6C"/>
<path d="M585.327 586.616C585.526 586.779 580.429 593.128 573.935 600.801C567.441 608.456 562.017 614.533 561.817 614.37C561.618 614.207 566.715 607.858 573.209 600.184C579.703 592.529 585.127 586.452 585.327 586.616Z" fill="#FF9A6C"/>
<path d="M597.479 594.834C597.678 595.016 592.327 601.165 585.543 608.566C578.758 615.985 573.098 621.845 572.899 621.663C572.699 621.482 578.051 615.332 584.835 607.931C591.619 600.512 597.279 594.653 597.479 594.834Z" fill="#FF9A6C"/>
<path d="M440.93 339.238C454.735 336.318 472.258 335.084 485.609 342.648L558.514 408.424C558.514 408.424 661.278 523.704 665.305 530.144C669.332 536.566 674.756 574.515 659.192 593.852C643.628 613.189 626.141 605.752 606.168 601.199C590.35 597.589 479.859 516.412 434.454 482.69C418.745 471.026 407.226 454.518 402.165 435.616C399.136 424.279 397.14 411.145 398.501 398.139" fill="#455A64"/>
<path d="M398.499 398.121C398.499 398.121 398.481 398.756 398.372 400.008C398.281 401.26 398.19 403.128 398.154 405.559C398.118 410.438 398.481 417.676 400.295 426.801C401.22 431.354 402.417 436.379 404.285 441.712C406.136 447.045 408.784 452.614 412.231 458.201C415.714 463.77 420.067 469.376 425.437 474.582C430.716 479.879 437.282 484.323 443.94 489.312C470.696 509.03 502.623 532.449 538.558 557.754C547.556 564.067 556.807 570.488 566.331 576.91C575.872 583.313 585.65 589.844 595.972 595.83C598.566 597.281 601.178 598.769 603.935 599.912C605.277 600.51 606.692 600.837 608.198 601.181L612.624 602.252C618.52 603.721 624.47 605.227 630.565 605.807C636.624 606.333 642.991 605.662 648.36 602.56C653.748 599.585 658.265 594.941 661.512 589.626C666.754 580.556 668.677 570.017 669.022 559.822C669.203 554.688 669.022 549.573 668.387 544.548C668.078 542.027 667.661 539.541 667.135 537.092C666.5 534.698 665.992 532.158 664.686 530.145C661.711 526.227 658.337 522.435 655.163 518.68C651.916 514.943 648.705 511.225 645.512 507.542C639.091 500.214 632.76 492.994 626.556 485.919C601.595 457.73 578.557 431.681 558.204 408.697L558.24 408.733C528.11 381.469 503.258 358.975 485.426 342.849L485.462 342.885C478.986 339.257 472.401 337.987 466.796 337.443C461.155 336.953 456.347 337.225 452.502 337.57C448.656 337.951 445.772 338.441 443.831 338.767C442.869 338.948 442.162 339.075 441.636 339.166C441.146 339.257 440.892 339.275 440.892 339.275C440.892 339.275 441.872 339.039 443.795 338.64C445.736 338.277 448.62 337.751 452.466 337.334C456.311 336.953 461.118 336.627 466.814 337.098C472.456 337.606 479.113 338.858 485.68 342.504H485.698L485.716 342.54C503.602 358.612 528.509 381.033 558.73 408.207V408.244C579.174 431.154 602.303 457.131 627.209 485.375C633.413 492.45 639.744 499.651 646.183 506.998C649.376 510.681 652.605 514.399 655.852 518.136C659.063 521.927 662.364 525.61 665.466 529.691C665.865 530.199 666.083 530.852 666.391 531.415C666.645 532.013 666.827 532.63 667.044 533.229C667.462 534.444 667.734 535.696 668.042 536.929C668.586 539.414 669.004 541.936 669.312 544.494C669.947 549.573 670.146 554.743 669.947 559.913C669.584 570.216 667.661 580.883 662.292 590.17C658.936 595.649 654.365 600.347 648.777 603.449C643.208 606.66 636.605 607.331 630.456 606.805C624.252 606.224 618.266 604.682 612.37 603.231L607.944 602.161C606.493 601.834 604.951 601.453 603.536 600.837C600.706 599.658 598.094 598.17 595.482 596.701C585.106 590.678 575.346 584.13 565.805 577.726C556.263 571.287 547.03 564.847 538.032 558.534C502.115 533.192 470.243 509.701 443.522 489.928C436.901 484.94 430.298 480.459 425.001 475.09C419.632 469.829 415.26 464.188 411.777 458.564C408.331 452.904 405.682 447.299 403.85 441.93C402 436.56 400.821 431.517 399.932 426.946C398.172 417.803 397.864 410.529 397.955 405.631C398.082 400.734 398.481 398.176 398.481 398.176L398.499 398.121Z" fill="#263238"/>
<path d="M583.348 403.655C583.348 403.655 583.202 403.583 582.93 403.383C582.622 403.166 582.241 402.875 581.769 402.531C580.772 401.751 579.23 400.68 577.398 399.084C573.661 396.037 568.509 391.302 562.36 385.261C556.21 379.221 549.099 371.82 541.027 363.784C536.963 359.811 532.682 355.621 528.02 351.557C523.377 347.476 518.442 343.376 512.964 339.784C510.769 338.188 508.357 336.973 506.125 335.612L505.817 335.431L505.89 335.104C506.27 333.453 506.633 331.821 506.996 330.224L507.304 330.769C485.174 323.803 465.6 317.635 451.469 313.191C444.504 310.96 438.898 309.164 434.944 307.894C433.057 307.277 431.588 306.787 430.499 306.425C430.028 306.261 429.665 306.134 429.357 306.026C429.103 305.935 428.976 305.88 428.976 305.862C428.976 305.862 429.121 305.862 429.375 305.935C429.683 306.026 430.064 306.116 430.554 306.261C431.642 306.588 433.148 307.023 435.053 307.567C439.025 308.765 444.667 310.488 451.669 312.592C465.818 316.964 485.409 323.023 507.595 329.862L508.012 329.989L507.921 330.406C507.558 332.002 507.196 333.635 506.815 335.286L506.579 334.759C508.846 336.138 511.277 337.372 513.49 338.968C519.023 342.596 523.993 346.714 528.637 350.832C533.317 354.931 537.58 359.14 541.644 363.131C549.698 371.203 556.754 378.658 562.849 384.753C568.926 390.849 573.987 395.656 577.652 398.776C579.429 400.408 580.935 401.515 581.896 402.349C582.35 402.73 582.713 403.039 583.003 403.275C583.257 403.492 583.366 403.601 583.366 403.619L583.348 403.655Z" fill="#263238"/>
<path d="M619.427 477.921C619.39 478.048 618.628 476.633 617.377 474.202C616.089 471.626 614.293 468.089 612.134 463.772C607.744 454.956 601.758 442.729 595.191 429.197C588.625 415.664 582.747 403.383 578.539 394.477C576.489 390.105 574.82 386.513 573.605 383.901C573.079 382.722 572.643 381.76 572.317 380.999C572.027 380.327 571.9 379.983 571.918 379.965C571.954 379.965 572.135 380.273 572.48 380.926C572.861 381.67 573.351 382.595 573.931 383.738C575.219 386.314 576.979 389.851 579.137 394.186C583.509 403.148 589.459 415.32 596.044 428.78C602.538 442.276 608.416 454.502 612.733 463.482C614.801 467.853 616.488 471.427 617.721 474.039C618.882 476.524 619.517 477.975 619.445 477.903L619.427 477.921Z" fill="#263238"/>
<path d="M449.581 676.919C449.581 676.919 449.816 676.919 450.234 676.937C450.705 676.973 451.322 677.01 452.102 677.064C453.789 677.209 456.184 677.39 459.286 677.644C465.562 678.189 474.578 678.969 485.806 679.93C508.318 681.944 539.646 684.737 575.219 687.912L574.729 688.492C572.879 681 570.938 673.182 568.96 665.2C568.053 661.536 567.165 657.926 566.276 654.389L566.675 654.752C526.712 650.108 491.212 645.99 466.56 643.142L466.868 642.979C460.991 653.391 456.456 661.808 453.499 667.649C452.03 670.57 450.941 672.856 450.306 674.452C449.98 675.25 449.762 675.849 449.671 676.284C449.563 676.701 449.617 676.901 449.581 676.937C449.508 676.973 449.49 675.994 450.143 674.397C450.742 672.783 451.757 670.461 453.191 667.522C456.057 661.627 460.501 653.155 466.324 642.689L466.433 642.507H466.632C491.303 645.319 526.821 649.328 566.784 653.827L567.11 653.863L567.183 654.189C568.053 657.727 568.96 661.355 569.867 665.001C571.845 672.982 573.786 680.819 575.636 688.293L575.799 688.928L575.146 688.873C539.483 685.535 508.064 682.597 485.516 680.492C474.324 679.404 465.344 678.551 459.104 677.935C456.057 677.626 453.68 677.391 452.03 677.209C451.268 677.118 450.669 677.064 450.216 677.01C449.816 676.955 449.599 676.937 449.617 676.919H449.581Z" fill="#263238"/>
<g opacity="0.3">
<path d="M452.829 677.206L457.128 688.399L575.166 695.437V688.399L452.829 677.206Z" fill="black"/>
</g>
<path d="M290.533 114.702C290.17 108.389 284.928 103.111 278.905 101.206C272.883 99.3013 266.28 100.263 260.293 102.258C247.214 106.594 236.221 115.5 225.555 124.208C208.993 137.74 192.903 156.297 186.59 176.723C181.819 192.106 180.441 202.155 185.339 218.518C189.674 232.994 193.103 247.016 192.232 259.115C190.871 278.253 188.549 282.752 183.633 301.527C180.55 313.282 191.016 343.975 191.016 343.975L257.21 318.651C280.846 307.549 331.711 286.833 331.711 286.833L290.533 114.702Z" fill="#263238"/>
<path d="M253.307 339.129C253.416 323.039 253.561 311.828 253.561 311.937C253.561 311.937 224.664 305.261 218.841 264.047C215.939 243.549 214.433 210.951 216.628 183.578C218.605 158.944 235.475 128.958 260.001 131.987L336.407 152.703C343.862 153.628 346.348 159.978 346.075 167.488L346.638 171.007L341.032 288.681L343.445 338.73C342.466 361.097 320.335 381.432 297.986 382.447C273.243 383.572 253.144 363.89 253.307 339.129Z" fill="#B56760"/>
<path d="M233.933 216.408C233.788 219.183 236.02 221.614 238.922 221.814C241.824 222.013 244.291 219.945 244.437 217.152C244.582 214.376 242.35 211.945 239.448 211.746C236.546 211.546 234.079 213.632 233.933 216.408Z" fill="#263238"/>
<path d="M227.005 202.115C227.64 202.805 231.685 199.921 237.363 200.048C243.041 200.084 247.14 203.077 247.775 202.388C248.084 202.079 247.431 200.828 245.653 199.485C243.893 198.143 240.864 196.819 237.327 196.764C233.789 196.728 230.796 197.98 229.073 199.267C227.313 200.574 226.696 201.807 227.005 202.115Z" fill="#263238"/>
<path d="M287.029 215.775C286.884 218.55 289.115 220.981 292.018 221.18C294.92 221.38 297.387 219.312 297.532 216.518C297.677 213.743 295.446 211.312 292.544 211.113C289.641 210.913 287.174 212.999 287.029 215.775Z" fill="#263238"/>
<path d="M281.409 201.972C282.044 202.68 286.107 199.777 291.767 199.904C297.427 199.94 301.545 202.934 302.18 202.244C302.488 201.936 301.853 200.684 300.057 199.342C298.298 197.999 295.268 196.657 291.731 196.621C288.194 196.584 285.2 197.836 283.477 199.124C281.718 200.43 281.101 201.664 281.409 201.972Z" fill="#263238"/>
<path d="M258.642 244.874C258.679 244.547 255.159 243.876 249.463 243.06C248.012 242.878 246.652 242.57 246.416 241.59C246.089 240.538 246.724 238.978 247.45 237.309C248.865 233.826 250.37 230.18 251.93 226.353C258.152 210.752 262.687 197.909 262.053 197.655C261.418 197.419 255.867 209.863 249.645 225.464C248.139 229.309 246.706 232.974 245.346 236.493C244.765 238.125 243.786 239.976 244.493 242.171C244.856 243.259 245.908 244.057 246.833 244.329C247.758 244.638 248.575 244.656 249.282 244.71C255.032 245.128 258.588 245.2 258.624 244.892L258.642 244.874Z" fill="#263238"/>
<path d="M253.563 311.954C253.563 311.954 281.19 314.203 308.872 298.203C308.872 298.203 294.487 326.974 253.399 322.42L253.563 311.935V311.954Z" fill="#8A4A43"/>
<path d="M279.594 181.907C280.265 183.413 285.852 182.288 292.564 182.633C299.276 182.85 304.754 184.429 305.553 182.977C305.897 182.288 304.863 180.909 302.596 179.567C300.346 178.225 296.827 177.046 292.8 176.882C288.791 176.719 285.181 177.608 282.823 178.751C280.447 179.893 279.304 181.2 279.594 181.907Z" fill="#263238"/>
<path d="M225.409 184.414C226.57 185.72 231.214 184.468 236.783 184.504C242.352 184.377 247.032 185.538 248.139 184.214C248.629 183.561 247.903 182.273 245.871 181.003C243.858 179.752 240.484 178.7 236.674 178.736C232.847 178.772 229.527 179.879 227.568 181.167C225.573 182.455 224.92 183.779 225.428 184.414H225.409Z" fill="#263238"/>
<path d="M259.985 258.86C261.273 256.484 265.989 253.11 270.978 253.817C271.123 253.817 271.25 253.817 271.377 253.817C273.735 253.999 276.075 255.432 276.91 257.645C277.672 259.677 277.073 262.053 275.731 263.74C274.37 265.427 272.357 266.497 270.27 267.06C267.568 267.785 264.52 267.713 262.198 266.153C259.876 264.593 258.661 261.291 259.985 258.842V258.86Z" fill="#8A4A43"/>
<path d="M275.857 250.262C275.585 250.207 275.222 251.695 274.17 253.799C273.136 255.903 271.249 258.624 268.365 260.638C265.463 262.651 262.252 263.468 259.93 263.704C257.59 263.958 256.084 263.758 256.03 264.048C255.975 264.266 257.427 264.937 259.984 265.01C262.506 265.1 266.17 264.429 269.435 262.162C272.701 259.894 274.605 256.701 275.403 254.307C276.22 251.876 276.093 250.28 275.875 250.262H275.857Z" fill="#263238"/>
<path d="M215.578 231.072L207.052 196.606C199.397 186.048 205.383 168.815 210.807 156.97C216.231 145.106 226.57 136.036 238.071 129.905C249.572 123.773 262.288 120.309 274.95 117.189C270.252 132.553 258.424 147.392 244.565 155.537C244.565 155.537 223.577 169.885 219.786 186.792C215.65 205.277 215.559 231.072 215.559 231.072H215.578Z" fill="#263238"/>
<path d="M263.394 138.955L323.383 174.999C323.383 174.999 325.234 202.318 336.172 228.948C347.238 219.479 354.076 237.727 357.396 223.705C357.577 222.98 354.348 253.128 342.757 254.072L340.852 286.851L398.066 272.792C398.066 272.792 394.982 233.047 385.223 208.957C379.146 193.974 375.935 181.403 369.949 166.383C365.414 155.009 357.36 138.011 351.301 129.939C338.295 112.561 290.187 111.799 290.187 111.799C268.981 116.806 283.258 114.411 265.39 126.91L259.276 143.308" fill="#263238"/>
<path d="M336.155 228.712C336.119 220.041 345.389 213.764 353.261 217.664C357.579 219.805 361.062 224.412 361.189 233.609C361.533 258.117 336.373 253.437 336.319 252.729C336.282 252.294 336.21 238.852 336.174 228.712H336.155Z" fill="#B56760"/>
<path d="M343.81 243.333C343.918 243.26 344.245 243.623 344.989 243.949C345.714 244.258 346.948 244.457 348.236 243.968C350.866 242.97 353.025 238.834 353.097 234.408C353.134 232.177 352.626 230.054 351.791 228.313C351.011 226.535 349.814 225.301 348.472 225.084C347.147 224.812 346.222 225.592 345.914 226.299C345.587 226.989 345.751 227.478 345.624 227.515C345.551 227.569 345.079 227.115 345.261 226.1C345.351 225.61 345.642 225.029 346.222 224.558C346.821 224.068 347.692 223.814 348.617 223.905C350.54 224.014 352.299 225.719 353.224 227.642C354.24 229.564 354.857 231.941 354.821 234.462C354.73 239.396 352.208 244.058 348.617 245.147C346.857 245.618 345.388 245.129 344.626 244.548C343.846 243.949 343.701 243.405 343.791 243.369L343.81 243.333Z" fill="#8A4A43"/>
<path d="M292.002 111.692C292.002 111.692 291.693 112.254 290.968 113.161C290.224 114.05 289.099 115.283 287.63 116.753C284.727 119.691 280.537 123.537 275.893 127.764C271.249 131.99 267.077 135.836 264.102 138.684C261.127 141.532 259.368 143.364 259.259 143.273C259.204 143.237 259.603 142.729 260.329 141.84C261.055 140.951 262.198 139.718 263.612 138.23C266.46 135.255 270.578 131.319 275.24 127.074C279.793 122.938 283.911 119.22 287.158 116.281C290.206 113.524 291.875 111.619 291.984 111.71L292.002 111.692Z" fill="#455A64"/>
<path d="M225.263 132.46C225.263 132.46 225.771 131.734 226.859 130.573C227.947 129.412 229.616 127.798 231.848 126.02C236.292 122.464 243.185 118.292 251.675 116.043C255.883 114.918 260.273 114.646 263.974 115.88C267.656 117.041 270.468 119.598 271.611 122.319C272.772 125.04 272.499 127.562 271.955 129.067C271.701 129.847 271.357 130.373 271.121 130.736C270.867 131.081 270.722 131.244 270.685 131.226C270.595 131.172 271.193 130.482 271.592 128.977C272.01 127.507 272.137 125.131 270.976 122.61C269.851 120.106 267.184 117.784 263.701 116.714C260.2 115.589 256.028 115.861 251.91 116.95C243.584 119.163 236.763 123.172 232.265 126.546C227.748 129.938 225.408 132.587 225.281 132.46H225.263Z" fill="#455A64"/>
<path d="M211.533 157.131C211.533 157.131 212.041 156.46 213.093 155.371C214.146 154.283 215.706 152.723 217.665 150.855C221.601 147.154 227.206 142.038 234.499 137.939C238.145 135.962 241.827 134.293 245.455 133.712C249.065 133.077 252.53 133.676 254.924 135.145C257.337 136.56 258.698 138.501 259.278 139.934C259.55 140.66 259.695 141.24 259.732 141.639C259.768 142.038 259.768 142.256 259.732 142.256C259.641 142.256 259.568 141.422 258.933 140.079C258.28 138.755 256.92 136.996 254.58 135.726C252.276 134.438 249.029 133.93 245.582 134.583C242.118 135.182 238.526 136.832 234.934 138.791C227.769 142.818 222.145 147.807 218.1 151.362C216.195 153.068 214.599 154.519 213.329 155.644C212.205 156.659 211.551 157.185 211.497 157.149L211.533 157.131Z" fill="#455A64"/>
<path d="M355.147 255.124C355.31 259.858 351.61 263.813 346.875 263.976C342.141 264.139 338.186 260.439 338.023 255.704C337.86 250.97 341.56 247.015 346.295 246.852C351.029 246.688 354.984 250.389 355.147 255.124Z" fill="#455A64"/>
<path d="M197.999 500.139C195.95 501.518 173.329 506.996 167.851 521.381C162.372 535.766 133.276 565.026 154.336 593.579L198.018 569.362V500.139H197.999Z" fill="#FF725E"/>
<path d="M154.317 593.65V593.614C150.472 588.426 148.059 582.857 147.17 577.07C146.372 571.973 146.68 566.731 148.095 561.035C150.689 550.677 156.585 541.008 161.319 533.244C164.131 528.618 166.58 524.627 167.813 521.38C172.294 509.607 188.239 503.784 195.042 501.299C196.547 500.755 197.618 500.356 197.999 500.102L198.071 500.048V569.379H198.053L154.335 593.632L154.317 593.65ZM197.962 500.229C197.527 500.483 196.475 500.864 195.06 501.39C188.275 503.875 172.367 509.68 167.886 521.417C166.634 524.682 164.204 528.673 161.392 533.298C156.657 541.062 150.78 550.713 148.186 561.053C146.771 566.731 146.463 571.955 147.261 577.052C148.168 582.821 150.544 588.372 154.354 593.542L197.98 569.343V500.229H197.962Z" fill="#263238"/>
<path d="M248.392 380.832L251.965 331.455L341.867 293.941L345.06 312.371L283.819 343.536L248.392 380.832Z" fill="#E0E0E0"/>
<path d="M345.061 301.506C345.061 301.506 289.988 323.782 265.553 345.55C242.57 366.03 194.807 446.699 189.691 468.703C184.576 490.707 185.574 551.585 185.574 551.585C185.574 551.585 185.447 614.386 185.447 615.91C185.447 617.433 146.046 718.764 153.212 774.019H377.84C377.84 774.019 384.498 696.252 369.133 666.049C353.787 635.864 353.279 641.995 353.279 641.995C353.279 641.995 362.494 631.764 361.46 622.549C360.444 613.334 354.802 605.661 354.802 605.661L394.203 482.852C394.203 482.852 398.302 420.94 387.545 379.49C377.477 340.634 373.723 342.829 361.133 330.403C360.861 330.131 361.297 330.748 361.133 330.403L349.687 321.007L345.043 301.47L345.061 301.506Z" fill="#FF725E"/>
<path d="M198.001 676.916C197.294 674.268 215.016 642.831 215.016 642.831L316.546 659.883L323.621 688.417L198.019 676.934L198.001 676.916Z" fill="#FF725E"/>
<path d="M197.998 676.915C197.998 676.915 198.233 676.915 198.651 676.933C199.122 676.969 199.739 677.005 200.519 677.06C202.206 677.205 204.619 677.386 207.703 677.64C213.979 678.184 223.013 678.964 234.242 679.926C256.753 681.939 288.099 684.733 323.618 687.907L323.128 688.488C321.405 681.577 319.609 674.32 317.795 666.937C317.214 664.579 316.634 662.239 316.071 659.954L316.452 660.298C275.982 653.441 239.901 647.328 214.959 643.101L215.285 642.938C209.408 653.351 204.873 661.749 201.916 667.609C200.447 670.529 199.358 672.833 198.723 674.411C198.397 675.209 198.179 675.808 198.088 676.243C197.979 676.661 198.034 676.86 197.998 676.896C197.925 676.933 197.907 675.953 198.56 674.357C199.159 672.742 200.193 670.42 201.608 667.464C204.474 661.55 208.918 653.097 214.723 642.648L214.832 642.448L215.049 642.485C240.01 646.639 276.109 652.643 316.597 659.373L316.906 659.428L316.978 659.736C317.541 662.003 318.121 664.362 318.702 666.72C320.534 674.103 322.33 681.359 324.035 688.27L324.198 688.905L323.545 688.851C287.936 685.513 256.518 682.574 233.951 680.47C222.759 679.382 213.761 678.511 207.503 677.912C204.455 677.604 202.079 677.368 200.41 677.187C199.648 677.096 199.032 677.042 198.596 676.987C198.197 676.933 197.979 676.915 197.998 676.896V676.915Z" fill="#263238"/>
<g opacity="0.3">
<path d="M176.195 628.135L178.463 646.529C194.662 657.993 217.555 655.817 234.86 646.13C252.166 636.443 265.027 620.534 276.909 604.643C312.899 556.482 344.263 504.474 365.65 448.276C309.851 515.267 232.538 561.597 176.195 628.135Z" fill="black"/>
</g>
<path d="M357.56 353.475C376.407 368.477 392.842 415.424 363.655 456.003C363.655 456.003 236.13 629.023 215.015 642.827C193.9 656.632 165.474 648.505 157.348 628.207C149.221 607.908 152.468 588.407 163.842 574.603C175.216 560.798 249.935 429.21 249.935 429.21C249.935 429.21 266.986 368.223 296.01 350.5" fill="#FF725E"/>
<path d="M296.028 350.502C296.028 350.502 295.593 350.829 294.722 351.428C293.834 351.99 292.582 352.951 290.949 354.239C287.738 356.87 283.385 361.241 278.668 367.663C269.272 380.488 258.606 401.44 250.261 429.285V429.321L250.225 429.357C233.826 458.218 213.346 494.154 189.528 534.479C183.524 544.529 177.374 554.905 170.735 565.335C169.012 567.911 167.434 570.578 165.511 573.099C164.586 574.387 163.642 575.639 162.699 576.854C161.756 578.088 160.921 579.412 160.105 580.754C158.49 583.439 157.203 586.323 156.096 589.28C155.098 592.273 154.3 595.375 153.847 598.55C152.976 604.881 153.23 611.447 154.663 617.815C155.026 619.411 155.407 621.007 155.915 622.567C156.35 624.145 156.949 625.687 157.511 627.229C158.073 628.771 158.871 630.204 159.561 631.692L160.903 633.76C161.338 634.449 161.792 635.138 162.354 635.755C166.508 640.852 172.186 644.843 178.572 646.948C184.921 649.088 191.868 649.777 198.598 648.671C204.802 647.655 210.752 645.242 215.795 641.651C220.638 637.805 224.774 633.052 228.946 628.499C237.182 619.266 244.946 609.851 252.51 600.527C267.603 581.879 281.807 563.612 295.267 546.143C308.708 528.674 321.37 511.967 333.161 496.312C339.039 488.476 344.716 480.893 350.177 473.601C352.898 469.955 355.564 466.381 358.158 462.88C360.734 459.361 363.419 456.023 365.559 452.468C370.294 445.629 373.378 438.246 375.7 431.153C376.189 429.357 376.679 427.561 377.169 425.82C377.659 424.06 377.822 422.283 378.167 420.541C378.91 417.077 378.947 413.648 379.237 410.365C379.654 397.141 376.933 385.839 373.577 377.205C370.185 368.534 365.995 362.493 362.82 358.792C362.004 357.885 361.351 357.015 360.68 356.38C360.009 355.745 359.428 355.219 358.956 354.784C358.031 353.931 357.578 353.459 357.578 353.459C357.578 353.459 358.068 353.858 359.011 354.711C359.482 355.128 360.063 355.654 360.77 356.271C361.46 356.888 362.131 357.759 362.965 358.666C366.194 362.348 370.457 368.352 373.922 377.06C377.35 385.712 380.144 397.068 379.763 410.383C379.473 413.684 379.455 417.149 378.711 420.632C378.384 422.373 378.203 424.187 377.731 425.947C377.26 427.707 376.77 429.502 376.28 431.335C373.958 438.482 370.874 445.937 366.14 452.849C363.981 456.44 361.296 459.778 358.739 463.316C356.145 466.817 353.478 470.408 350.775 474.055C345.333 481.347 339.673 488.929 333.796 496.784C322.023 512.475 309.398 529.182 295.974 546.669C282.532 564.156 268.347 582.441 253.254 601.108C245.69 610.432 237.926 619.864 229.672 629.116C227.622 631.438 225.482 633.705 223.323 635.973C221.11 638.204 218.933 640.453 216.375 642.394C211.187 646.095 205.129 648.544 198.78 649.596C191.886 650.721 184.794 650.031 178.299 647.818C171.769 645.66 165.928 641.578 161.647 636.317C161.066 635.701 160.595 634.993 160.141 634.268L158.763 632.145C158.055 630.621 157.221 629.116 156.64 627.556C156.078 625.978 155.461 624.436 155.026 622.821C154.518 621.243 154.119 619.629 153.774 617.996C152.323 611.52 152.069 604.844 152.958 598.387C153.411 595.158 154.228 592.001 155.262 588.954C156.386 585.924 157.71 582.986 159.361 580.265C160.196 578.904 161.048 577.562 162.01 576.292C162.989 575.04 163.932 573.771 164.821 572.519C166.69 570.07 168.304 567.385 170.009 564.827C176.631 554.415 182.798 544.057 188.821 534.026C212.693 493.736 233.228 457.855 249.717 429.031L249.681 429.103C258.134 401.204 268.909 380.252 278.414 367.445C283.203 361.06 287.611 356.688 290.859 354.094C292.509 352.824 293.779 351.881 294.686 351.337C295.575 350.756 296.047 350.484 296.047 350.484L296.028 350.502Z" fill="#263238"/>
<path d="M239.795 484.432C239.795 484.432 236.511 475.834 229.963 474.709C223.414 473.566 210.716 474.782 210.716 474.782C210.716 474.782 205.129 478.99 205.183 484.759C205.238 490.527 206.362 494.573 206.362 494.573C206.362 494.573 201.773 488.387 195.732 494.246C189.692 500.105 184.395 511.987 184.395 511.987C184.395 511.987 176.359 514.563 173.293 518.463C170.227 522.363 168.432 528.676 168.432 528.676C168.432 528.676 161.847 532.685 162.881 541.229C163.915 549.773 171.407 553.365 171.407 553.365C171.407 553.365 195.351 571.015 198.29 568.747C201.229 566.462 207.215 562.852 198.58 555.233C189.964 547.614 184.558 542.789 184.558 542.789L188.621 536.531C188.621 536.531 212.058 552.639 215.832 551.877C219.587 551.097 225.99 550.97 223.378 545.184C220.747 539.397 198.816 522.527 198.816 522.527L201.41 513.475C201.41 513.475 226.752 530.653 230.906 527.896C235.06 525.157 238.761 523.869 234.552 518.209C230.344 512.55 212.022 499.035 212.022 499.035L219.532 492.033C219.532 492.033 237.219 495.044 239.813 484.451L239.795 484.432Z" fill="#B56760"/>
<path d="M349.704 321.042C349.704 321.042 349.486 321.115 349.069 321.242C348.597 321.369 347.98 321.532 347.2 321.731C345.568 322.167 343.155 322.802 340.053 323.672C333.867 325.432 324.924 328.062 314.258 332.325C311.591 333.395 308.834 334.575 306.004 335.935C304.589 336.606 303.156 337.296 301.723 338.076C301.016 338.457 300.272 338.819 299.564 339.255C298.893 339.708 298.168 340.107 297.515 340.633C292.181 344.697 287.338 350.121 282.313 355.78C272.372 367.263 262.232 380.578 251.856 394.691C241.48 408.84 231.884 422.536 223.285 435.089C218.986 441.365 214.959 447.351 211.222 452.993C207.485 458.635 204.111 463.931 201.59 469.083C196.492 479.369 193.481 488.203 191.486 494.316C190.506 497.382 189.799 499.776 189.327 501.391C189.109 502.171 188.928 502.769 188.801 503.241C188.674 503.658 188.62 503.876 188.602 503.858C188.602 503.858 188.62 503.64 188.71 503.205C188.819 502.733 188.964 502.116 189.164 501.336C189.581 499.685 190.234 497.273 191.159 494.207C193.046 488.058 195.966 479.169 201.009 468.793C203.495 463.587 206.869 458.217 210.587 452.576C214.288 446.916 218.297 440.894 222.578 434.599C231.14 422.028 240.718 408.296 251.094 394.147C261.488 379.997 271.665 366.701 281.66 355.218C286.721 349.54 291.583 344.134 297.061 339.998C297.732 339.472 298.494 339.055 299.202 338.584C299.927 338.148 300.671 337.803 301.397 337.404C302.83 336.624 304.281 335.935 305.714 335.264C308.562 333.922 311.355 332.742 314.022 331.69C324.761 327.5 333.74 324.96 339.962 323.31C343.064 322.475 345.513 321.913 347.164 321.532C347.962 321.369 348.579 321.223 349.05 321.133C349.468 321.042 349.704 321.024 349.704 321.024V321.042Z" fill="#263238"/>
<path d="M335.445 631.11C335.445 631.11 334.411 630.602 332.634 629.532C330.856 628.48 328.335 626.829 325.287 624.707C319.21 620.462 311.138 614.077 303.084 606.077C295.048 598.077 288.608 590.041 284.327 583.964C282.186 580.935 280.535 578.431 279.465 576.654C278.377 574.876 277.814 573.896 277.869 573.86C277.923 573.824 278.594 574.749 279.774 576.454C280.935 578.159 282.676 580.608 284.871 583.583C289.279 589.515 295.755 597.442 303.737 605.406C311.736 613.351 319.7 619.791 325.668 624.163C328.643 626.357 331.092 628.081 332.815 629.224C334.52 630.385 335.464 631.056 335.427 631.11H335.445Z" fill="#263238"/>
<g opacity="0.3">
<path d="M201.263 677.203L204.328 688.396L319.3 687.996L201.263 677.203Z" fill="black"/>
</g>
</svg>
